<?xml version="1.0" encoding="utf-8"?>
<COLLADA xmlns="http://www.collada.org/2005/11/COLLADASchema" version="1.4.1">
  <asset>
    <contributor>
      <author>Blender User</author>
      <authoring_tool>Blender 2.55.0 r32738</authoring_tool>
    </contributor>
    <created>2010-12-20T13:11:49</created>
    <modified>2010-12-20T13:11:49</modified>
    <unit name="meter" meter="1"/>
    <up_axis>Z_UP</up_axis>
  </asset>
  <library_cameras/>
  <library_lights/>
  <library_images/>
  <library_effects>
    <effect id="Material_001-effect">
      <profile_COMMON>
        <technique sid="common">
          <lambert>
            <emission>
              <color>0 0 0 1</color>
            </emission>
            <ambient>
              <color>0 0 0 1</color>
            </ambient>
            <diffuse>
              <color>0.64 0.64 0.64 1</color>
            </diffuse>
            <index_of_refraction>
              <float>1</float>
            </index_of_refraction>
          </lambert>
          <extra/>
        </technique>
      </profile_COMMON>
    </effect>
  </library_effects>
  <library_materials>
    <material id="Material_001" name="Material.001">
      <instance_effect url="#Material_001-effect"/>
    </material>
  </library_materials>
  <library_geometries>
    <geometry id="Cylinder-mesh">
      <mesh>
        <source id="Cylinder-mesh-positions">
          <float_array id="Cylinder-mesh-positions-array" count="78">0.1249999 0.1249999 0.75 0.1249999 -0.1249999 0.75 -0.1249999 -0.1249999 0.75 -0.1249998 0.125 0.75 0.125 0.1249998 1 0.1249998 -0.125 1 -0.125 -0.1249999 1 -0.1249999 0.1249999 1 0.01414209 0.01414209 0 0.01999998 0 0 0.01414209 -0.01414209 0 0 -0.01999998 0 -0.01414209 -0.01414209 0 -0.01999998 0 0 -0.01414209 0.01414209 0 0 0.01999998 0 0.01414209 0.01414209 0.75 0.01999998 0 0.75 0.01414209 -0.01414209 0.75 0 -0.01999998 0.75 -0.01414209 -0.01414209 0.75 -0.01999998 0 0.75 -0.01414209 0.01414209 0.75 0 0.01999998 0.75 0 0 0 0 0 0.75</float_array>
          <technique_common>
            <accessor source="#Cylinder-mesh-positions-array" count="26" stride="3">
              <param name="X" type="float"/>
              <param name="Y" type="float"/>
              <param name="Z" type="float"/>
            </accessor>
          </technique_common>
        </source>
        <source id="Cylinder-mesh-normals">
          <float_array id="Cylinder-mesh-normals-array" count="132">2.08616e-7 1 2.38419e-7 2.68221e-7 1 1.78814e-7 -1 2.08616e-7 -1.19209e-7 -1 2.38419e-7 -1.49012e-7 0 -1 -2.98023e-7 -4.76838e-7 -1 0 1 0 -2.38419e-7 1 -5.66244e-7 3.27825e-7 0 0 1 0 0 1 0 0 -1 0 0 -1 0 0 -1 0 0 1 0 0 -1 0 0 1 0 0 -1 0 0 1 0 0 -1 0 0 1 0 0 -1 0 0 1 0 0 -1 0 0 1 0 0 -1 0 0 1 0 0 -1 0 0 1 0.3826833 0.9238796 0 0.3826838 0.9238795 0 -0.3826824 0.92388 0 -0.3826836 0.9238793 0 -0.9238792 0.3826842 0 -0.9238795 0.3826833 0 -0.9238798 -0.382683 0 -0.9238795 -0.3826833 0 -0.3826836 -0.9238795 0 -0.3826835 -0.9238795 0 0.3826835 -0.9238795 0 0.3826834 -0.9238796 0 0.9238798 -0.382683 0 0.9238795 -0.3826835 0 0.9238793 0.3826839 0 0.9238796 0.3826835 0</float_array>
          <technique_common>
            <accessor source="#Cylinder-mesh-normals-array" count="44" stride="3">
              <param name="X" type="float"/>
              <param name="Y" type="float"/>
              <param name="Z" type="float"/>
            </accessor>
          </technique_common>
        </source>
        <source id="Cylinder-mesh-map-0">
          <float_array id="Cylinder-mesh-map-0-array" count="264">0 0 1 0 1 1 0 0 1 0 1 1 0 0 1 0 1 1 0 0 1 0 1 1 0 0 1 0 1 1 0 0 1 0 1 1 0 0 1 0 1 1 0 0 1 0 1 1 0 0 1 0 1 1 0 0 1 0 1 1 0 0 1 0 1 1 0 0 1 0 1 1 0 0 1 0 1 1 0 0 1 0 1 1 0 0 1 0 1 1 0 0 1 0 1 1 0 0 1 0 1 1 0 0 1 0 1 1 0 0 1 0 1 1 0 0 1 0 1 1 0 0 1 0 1 1 0 0 1 0 1 1 0 0 1 0 1 1 0 0 1 0 1 1 0 0 1 0 1 1 0 0 1 0 1 1 0 0 1 0 1 1 0 0 1 0 1 1 0 0 1 0 1 1 0 0 1 0 1 1 0 0 1 0 1 1 0 0 1 0 1 1 0 0 1 0 1 1 0 0 1 0 1 1 0 0 1 0 1 1 0 0 1 0 1 1 0 0 1 0 1 1 0 0 1 0 1 1 0 0 1 0 1 1 0 0 1 0 1 1 0 0 1 0 1 1 0 0 1 0 1 1 0 0 1 0 1 1 0 0 1 0 1 1</float_array>
          <technique_common>
            <accessor source="#Cylinder-mesh-map-0-array" count="132" stride="2">
              <param name="S" type="float"/>
              <param name="T" type="float"/>
            </accessor>
          </technique_common>
        </source>
        <vertices id="Cylinder-mesh-vertices">
          <input semantic="POSITION" source="#Cylinder-mesh-positions"/>
        </vertices>
        <polylist material="Material_001" count="44">
          <input semantic="VERTEX" source="#Cylinder-mesh-vertices" offset="0"/>
          <input semantic="NORMAL" source="#Cylinder-mesh-normals" offset="1"/>
          <input semantic="TEXCOORD" source="#Cylinder-mesh-map-0" offset="2" set="0"/>
          <vcount>3 3 3 3 3 3 3 3 3 3 3 3 3 3 3 3 3 3 3 3 3 3 3 3 3 3 3 3 3 3 3 3 3 3 3 3 3 3 3 3 3 3 3 3 </vcount>
          <p>4 0 0 0 0 1 3 0 2 4 1 3 3 1 4 7 1 5 2 2 6 6 2 7 7 2 8 2 3 9 7 3 10 3 3 11 1 4 12 5 4 13 2 4 14 5 5 15 6 5 16 2 5 17 0 6 18 4 6 19 1 6 20 4 7 21 5 7 22 1 7 23 4 8 24 7 8 25 5 8 26 7 9 27 6 9 28 5 9 29 0 10 30 1 10 31 2 10 32 0 11 33 2 11 34 3 11 35 24 12 36 8 12 37 9 12 38 25 13 39 17 13 40 16 13 41 24 14 42 9 14 43 10 14 44 25 15 45 18 15 46 17 15 47 24 16 48 10 16 49 11 16 50 25 17 51 19 17 52 18 17 53 24 18 54 11 18 55 12 18 56 25 19 57 20 19 58 19 19 59 24 20 60 12 20 61 13 20 62 25 21 63 21 21 64 20 21 65 24 22 66 13 22 67 14 22 68 25 23 69 22 23 70 21 23 71 24 24 72 14 24 73 15 24 74 25 25 75 23 25 76 22 25 77 15 26 78 8 26 79 24 26 80 25 27 81 16 27 82 23 27 83 16 28 84 8 28 85 15 28 86 16 29 87 15 29 88 23 29 89 14 30 90 22 30 91 23 30 92 14 31 93 23 31 94 15 31 95 13 32 96 21 32 97 22 32 98 13 33 99 22 33 100 14 33 101 12 34 102 20 34 103 21 34 104 12 35 105 21 35 106 13 35 107 11 36 108 19 36 109 20 36 110 11 37 111 20 37 112 12 37 113 10 38 114 18 38 115 19 38 116 10 39 117 19 39 118 11 39 119 9 40 120 17 40 121 18 40 122 9 41 123 18 41 124 10 41 125 8 42 126 16 42 127 17 42 128 8 43 129 17 43 130 9 43 131</p>
        </polylist>
      </mesh>
    </geometry>
  </library_geometries>
  <library_animations/>
  <library_controllers/>
  <library_visual_scenes>
    <visual_scene id="Scene" name="Scene">
      <node id="Cylinder" type="NODE">
        <translate sid="location">0 0 0</translate>
        <rotate sid="rotationZ">0 0 1 0</rotate>
        <rotate sid="rotationY">0 1 0 0</rotate>
        <rotate sid="rotationX">1 0 0 0</rotate>
        <scale sid="scale">1 1 1</scale>
        <instance_geometry url="#Cylinder-mesh">
          <bind_material>
            <technique_common>
              <instance_material symbol="Material_001" target="#Material_001">
                <bind_vertex_input semantic="UVTex" input_semantic="TEXCOORD" input_set="0"/>
              </instance_material>
            </technique_common>
          </bind_material>
        </instance_geometry>
      </node>
    </visual_scene>
  </library_visual_scenes>
  <scene>
    <instance_visual_scene url="#Scene"/>
  </scene>
</COLLADA>