<?xml version="1.0" encoding="utf-8"?>
<COLLADA xmlns="http://www.collada.org/2005/11/COLLADASchema" version="1.4.1">
  <asset>
    <contributor>
      <author>Blender User</author>
      <authoring_tool>Blender 2.55.0 r32738</authoring_tool>
    </contributor>
    <created>2010-12-19T17:03:54</created>
    <modified>2010-12-19T17:03:54</modified>
    <unit name="meter" meter="1"/>
    <up_axis>Z_UP</up_axis>
  </asset>
  <library_cameras/>
  <library_lights/>
  <library_images/>
  <library_effects>
    <effect id="Material_001-effect">
      <profile_COMMON>
        <technique sid="common">
          <lambert>
            <emission>
              <color>0 0 0 1</color>
            </emission>
            <ambient>
              <color>0 0 0 1</color>
            </ambient>
            <diffuse>
              <color>0.64 0.64 0.64 1</color>
            </diffuse>
            <index_of_refraction>
              <float>1</float>
            </index_of_refraction>
          </lambert>
          <extra/>
        </technique>
      </profile_COMMON>
    </effect>
  </library_effects>
  <library_materials>
    <material id="Material_001" name="Material.001">
      <instance_effect url="#Material_001-effect"/>
    </material>
  </library_materials>
  <library_geometries>
    <geometry id="Torus-mesh">
      <mesh>
        <source id="Torus-mesh-positions">
          <float_array id="Torus-mesh-positions-array" count="480">1 0 0 0.9937028 0 0.01520276 0.9785 0 0.02149999 0.9632973 0 0.01520276 0.957 0 0 0.9632973 0 -0.01520276 0.9785 0 -0.02149999 0.9937028 0 -0.01520276 0.9510565 0.309017 0 0.9450675 0.3070711 0.01520276 0.9306089 0.3023732 0.02149999 0.9161502 0.2976753 0.01520276 0.9101611 0.2957293 0 0.9161502 0.2976753 -0.01520276 0.9306089 0.3023732 -0.02149999 0.9450675 0.3070711 -0.01520276 0.8090171 0.5877853 0 0.8039225 0.5840839 0.01520276 0.7916232 0.5751479 0.02149999 0.7793239 0.5662119 0.01520276 0.7742294 0.5625106 0 0.7793239 0.5662119 -0.01520276 0.7916232 0.5751479 -0.02149999 0.8039225 0.5840839 -0.01520276 0.5877853 0.8090171 0 0.5840838 0.8039225 0.01520276 0.5751479 0.7916232 0.02149999 0.5662119 0.7793239 0.01520276 0.5625105 0.7742293 0 0.5662119 0.7793239 -0.01520276 0.5751479 0.7916232 -0.02149999 0.5840838 0.8039225 -0.01520276 0.309017 0.9510565 0 0.307071 0.9450675 0.01520276 0.3023731 0.9306088 0.02149999 0.2976753 0.9161501 0.01520276 0.2957293 0.9101611 0 0.2976753 0.9161501 -0.01520276 0.3023731 0.9306088 -0.02149999 0.307071 0.9450675 -0.01520276 0 1 0 0 0.9937027 0.01520276 0 0.9785 0.02149999 0 0.9632973 0.01520276 0 0.957 0 0 0.9632973 -0.01520276 0 0.9785 -0.02149999 0 0.9937027 -0.01520276 -0.309017 0.9510565 0 -0.307071 0.9450675 0.01520276 -0.3023731 0.9306088 0.02149999 -0.2976753 0.9161501 0.01520276 -0.2957293 0.9101611 0 -0.2976753 0.9161501 -0.01520276 -0.3023731 0.9306088 -0.02149999 -0.307071 0.9450675 -0.01520276 -0.5877853 0.8090171 0 -0.5840838 0.8039225 0.01520276 -0.5751479 0.7916232 0.02149999 -0.5662119 0.7793239 0.01520276 -0.5625105 0.7742293 0 -0.5662119 0.7793239 -0.01520276 -0.5751479 0.7916232 -0.02149999 -0.5840838 0.8039225 -0.01520276 -0.8090171 0.5877853 0 -0.8039225 0.5840838 0.01520276 -0.7916232 0.5751479 0.02149999 -0.7793239 0.5662119 0.01520276 -0.7742294 0.5625105 0 -0.7793239 0.5662119 -0.01520276 -0.7916232 0.5751479 -0.02149999 -0.8039225 0.5840838 -0.01520276 -0.9510565 0.3090171 0 -0.9450675 0.3070711 0.01520276 -0.9306089 0.3023732 0.02149999 -0.9161502 0.2976753 0.01520276 -0.9101611 0.2957293 0 -0.9161502 0.2976753 -0.01520276 -0.9306089 0.3023732 -0.02149999 -0.9450675 0.3070711 -0.01520276 -1 0 0 -0.9937028 0 0.01520276 -0.9785 0 0.02149999 -0.9632973 0 0.01520276 -0.957 0 0 -0.9632973 0 -0.01520276 -0.9785 0 -0.02149999 -0.9937028 0 -0.01520276 -0.9510565 -0.309017 0 -0.9450676 -0.307071 0.01520276 -0.9306089 -0.3023731 0.02149999 -0.9161502 -0.2976752 0.01520276 -0.9101611 -0.2957292 0 -0.9161502 -0.2976752 -0.01520276 -0.9306089 -0.3023731 -0.02149999 -0.9450676 -0.307071 -0.01520276 -0.8090169 -0.5877853 0 -0.8039224 -0.5840839 0.01520276 -0.791623 -0.5751479 0.02149999 -0.7793238 -0.5662119 0.01520276 -0.7742292 -0.5625106 0 -0.7793238 -0.5662119 -0.01520276 -0.791623 -0.5751479 -0.02149999 -0.8039224 -0.5840839 -0.01520276 -0.5877851 -0.8090171 0 -0.5840836 -0.8039226 0.01520276 -0.5751477 -0.7916233 0.02149999 -0.5662118 -0.779324 0.01520276 -0.5625103 -0.7742294 0 -0.5662118 -0.779324 -0.01520276 -0.5751477 -0.7916233 -0.02149999 -0.5840836 -0.8039226 -0.01520276 -0.3090171 -0.9510564 0 -0.3070712 -0.9450674 0.01520276 -0.3023732 -0.9306087 0.02149999 -0.2976753 -0.9161501 0.01520276 -0.2957293 -0.910161 0 -0.2976753 -0.9161501 -0.01520276 -0.3023732 -0.9306087 -0.02149999 -0.3070712 -0.9450674 -0.01520276 0 -1 0 0 -0.9937027 0.01520276 0 -0.9785 0.02149999 0 -0.9632973 0.01520276 0 -0.957 0 0 -0.9632973 -0.01520276 0 -0.9785 -0.02149999 0 -0.9937027 -0.01520276 0.3090172 -0.9510565 0 0.3070712 -0.9450674 0.01520276 0.3023733 -0.9306088 0.02149999 0.2976754 -0.9161502 0.01520276 0.2957295 -0.9101611 0 0.2976754 -0.9161502 -0.01520276 0.3023733 -0.9306088 -0.02149999 0.3070712 -0.9450674 -0.01520276 0.5877851 -0.8090171 0 0.5840837 -0.8039225 0.01520276 0.5751477 -0.7916232 0.02149999 0.5662118 -0.7793239 0.01520276 0.5625103 -0.7742294 0 0.5662118 -0.7793239 -0.01520276 0.5751477 -0.7916232 -0.02149999 0.5840837 -0.8039225 -0.01520276 0.8090169 -0.5877853 0 0.8039224 -0.5840839 0.01520276 0.791623 -0.5751479 0.02149999 0.7793238 -0.5662119 0.01520276 0.7742292 -0.5625106 0 0.7793238 -0.5662119 -0.01520276 0.791623 -0.5751479 -0.02149999 0.8039224 -0.5840839 -0.01520276 0.9510565 -0.309017 0 0.9450676 -0.307071 0.01520276 0.9306089 -0.3023731 0.02149999 0.9161502 -0.2976752 0.01520276 0.9101611 -0.2957292 0 0.9161502 -0.2976752 -0.01520276 0.9306089 -0.3023731 -0.02149999 0.9450676 -0.307071 -0.01520276</float_array>
          <technique_common>
            <accessor source="#Torus-mesh-positions-array" count="160" stride="3">
              <param name="X" type="float"/>
              <param name="Y" type="float"/>
              <param name="Z" type="float"/>
            </accessor>
          </technique_common>
        </source>
        <source id="Torus-mesh-normals">
          <float_array id="Torus-mesh-normals-array" count="480">0.6449171 -0.01309239 -0.7640919 0.9979858 0.02255314 -0.0590533 0.675924 -0.2035279 -0.7083041 0.9510483 -0.3089999 0 0.006744563 0.02078306 -0.9997559 0 0.02185124 -0.9997559 -0.6664632 0.232612 -0.7083041 -0.70571 0.01528972 -0.7083041 -0.9510483 0.3089999 0 -1 0 0 -0.675924 0.2035279 0.7083041 -0.70571 -0.01528972 0.7083041 -0.006744563 -0.02078306 0.9997559 0 -0.02185124 0.9997559 0.6664632 -0.232612 0.7083041 0.70571 -0.01528972 0.7083041 0.5799432 -0.4024476 -0.7083041 0.8090152 -0.587756 0 0.01284825 0.01767021 -0.9997559 -0.5619373 0.4271981 -0.7083041 -0.8090152 0.587756 0 -0.5799432 0.4024171 0.7083041 -0.01284825 -0.01767021 0.9997559 0.5619373 -0.4271981 0.7083041 0.4271981 -0.5619373 -0.7083041 0.587756 -0.8090152 0 0.01767021 0.01284825 -0.9997559 -0.4024171 0.5799432 -0.7083041 -0.587756 0.8090152 0 -0.4271981 0.5619373 0.7083041 -0.01767021 -0.01284825 0.9997559 0.4024171 -0.5799432 0.7083041 0.232612 -0.6664632 -0.7083041 0.3089999 -0.9510483 0 0.02078306 0.006744563 -0.9997559 -0.2035279 0.675924 -0.7083041 -0.3089999 0.9510483 0 -0.232612 0.6664632 0.7083041 -0.02078306 -0.006744563 0.9997559 0.2035279 -0.675924 0.7083041 0.01528972 -0.70571 -0.7083041 0 -1 0 0.02185124 0 -0.9997559 0.01528972 0.70571 -0.7083041 0 1 0 -0.01528972 0.70571 0.7083041 -0.02185124 0 0.9997559 -0.01528972 -0.70571 0.7083041 -0.2035279 -0.675924 -0.7083041 -0.3089999 -0.9510483 0 0.02078306 -0.006744563 -0.9997559 0.232612 0.6664632 -0.7083041 0.3089999 0.9510483 0 0.2035279 0.675924 0.7083041 -0.02078306 0.006744563 0.9997559 -0.232612 -0.6664632 0.7083041 -0.4024171 -0.5799432 -0.7083041 -0.587756 -0.8090152 0 0.01767021 -0.01284825 -0.9997559 0.4271981 0.5619373 -0.7083041 0.587756 0.8090152 0 0.4024171 0.5799432 0.7083041 -0.01767021 0.01284825 0.9997559 -0.4271981 -0.5619373 0.7083041 -0.5619373 -0.4271981 -0.7083041 -0.8090152 -0.587756 0 0.01284825 -0.01767021 -0.9997559 0.5799432 0.4024171 -0.7083041 0.8090152 0.587756 0 0.5619373 0.4271981 0.7083041 -0.01284825 0.01767021 0.9997559 -0.5799432 -0.4024476 0.7083041 -0.6664632 -0.232612 -0.7083041 -0.9510483 -0.3089999 0 0.006744563 -0.02078306 -0.9997559 0.675924 0.2035279 -0.7083041 0.9510483 0.3089999 0 0.6664632 0.232612 0.7083041 -0.006744563 0.02078306 0.9997559 -0.675924 -0.2035279 0.7083041 -0.70571 -0.01528972 -0.7083041 -0.9999695 0 0 0 -0.02185124 -0.9997559 0.70571 -0.01528972 -0.7083041 1 0 0 0.70571 0.01528972 0.7083041 0 0.02185124 0.9997559 -0.70571 0.01528972 0.7083041 -0.675924 0.2035279 -0.7083041 -0.9510483 0.3089999 0 -0.006744563 -0.02078306 -0.9997559 0.6664632 -0.232612 -0.7083041 0.9510483 -0.3089999 0 0.675924 -0.2035279 0.7083041 0.006744563 0.02078306 0.9997559 -0.6664632 0.232612 0.7083041 -0.5799432 0.4024171 -0.7083041 -0.8090152 0.587756 0 -0.01284825 -0.01767021 -0.9997559 0.5619373 -0.4271981 -0.7083041 0.8090152 -0.587756 0 0.5799432 -0.4024171 0.7083041 0.01284825 0.01767021 0.9997559 -0.5619373 0.4271981 0.7083041 -0.4271981 0.5619373 -0.7083041 -0.587756 0.8090152 0 -0.01767021 -0.01284825 -0.9997559 0.4024171 -0.5799432 -0.7083041 0.587756 -0.8090152 0 0.4271981 -0.5619373 0.7083041 0.01767021 0.01284825 0.9997559 -0.4024171 0.5799432 0.7083041 -0.232612 0.6664632 -0.7083041 -0.3089999 0.9510483 0 -0.02078306 -0.006744563 -0.9997559 0.2035279 -0.675924 -0.7083041 0.3089999 -0.9510483 0 0.232612 -0.6664632 0.7083041 0.02078306 0.006744563 0.9997559 -0.2035279 0.675924 0.7083041 -0.01528972 0.70571 -0.7083041 0 1 0 -0.02185124 0 -0.9997559 -0.01528972 -0.70571 -0.7083041 0 -1 0 0.01528972 -0.70571 0.7083041 0.02185124 0 0.9997559 0.01528972 0.70571 0.7083041 0.2035279 0.675924 -0.7083041 0.3089999 0.9510483 0 -0.02078306 0.006744563 -0.9997559 -0.232612 -0.6664632 -0.7083041 -0.3089999 -0.9510483 0 -0.2035279 -0.675924 0.7083041 0.02078306 -0.006744563 0.9997559 0.232612 0.6664632 0.7083041 0.4024171 0.5799432 -0.7083041 0.587756 0.8090152 0 -0.01767021 0.01284825 -0.9997559 -0.4271981 -0.5619373 -0.7083041 -0.587756 -0.8090152 0 -0.4024171 -0.5799432 0.7083041 0.01767021 -0.01284825 0.9997559 0.4271981 0.5619373 0.7083041 0.5619373 0.4271981 -0.7083041 0.8090152 0.587756 0 -0.01284825 0.01767021 -0.9997559 -0.5799432 -0.4024171 -0.7083041 -0.8090152 -0.587756 0 -0.5619373 -0.4271981 0.7083041 0.01284825 -0.01767021 0.9997559 0.5799432 0.4024171 0.7083041 0.7127903 0.2216864 -0.6653951 0.9375591 0.3378094 0.08249151 -0.006744563 0.02078306 -0.9997559 -0.675924 -0.2035279 -0.7083041 -0.9510483 -0.3089999 0 -0.6664632 -0.232612 0.7083041 0.006744563 -0.02078306 0.9997559 0.675924 0.2035279 0.7083041</float_array>
          <technique_common>
            <accessor source="#Torus-mesh-normals-array" count="160" stride="3">
              <param name="X" type="float"/>
              <param name="Y" type="float"/>
              <param name="Z" type="float"/>
            </accessor>
          </technique_common>
        </source>
        <source id="Torus-mesh-map-0">
          <float_array id="Torus-mesh-map-0-array" count="1920">1 0 1 1 0 0 0 0 1 1 0 1 0 0 1 0 1 1 0 0 1 1 0 1 0 0 1 0 1 1 0 0 1 1 0 1 0 0 1 0 1 1 0 0 1 1 0 1 0 0 1 0 1 1 0 0 1 1 0 1 0 0 1 0 1 1 0 0 1 1 0 1 0 0 1 0 1 1 0 0 1 1 0 1 0 0 1 0 1 1 0 0 1 1 0 1 0 0 1 0 1 1 0 0 1 1 0 1 0 0 1 0 1 1 0 0 1 1 0 1 0 0 1 0 1 1 0 0 1 1 0 1 0 0 1 0 1 1 0 0 1 1 0 1 0 0 1 0 1 1 0 0 1 1 0 1 0 0 1 0 1 1 0 0 1 1 0 1 0 0 1 0 1 1 0 0 1 1 0 1 0 0 1 0 1 1 0 0 1 1 0 1 0 0 1 0 1 1 0 0 1 1 0 1 0 0 1 0 1 1 0 0 1 1 0 1 0 0 1 0 1 1 0 0 1 1 0 1 0 0 1 0 1 1 0 0 1 1 0 1 0 0 1 0 1 1 0 0 1 1 0 1 0 0 1 0 1 1 0 0 1 1 0 1 0 0 1 0 1 1 0 0 1 1 0 1 0 0 1 0 1 1 0 0 1 1 0 1 0 0 1 0 1 1 0 0 1 1 0 1 0 0 1 0 1 1 0 0 1 1 0 1 0 0 1 0 1 1 0 0 1 1 0 1 0 0 1 0 1 1 0 0 1 1 0 1 0 0 1 0 1 1 0 0 1 1 0 1 0 0 1 0 1 1 0 0 1 1 0 1 0 0 1 0 1 1 0 0 1 1 0 1 0 0 1 0 1 1 0 0 1 1 0 1 0 0 1 0 1 1 0 0 1 1 0 1 0 0 1 0 1 1 0 0 1 1 0 1 0 0 1 0 1 1 0 0 1 1 0 1 0 0 1 0 1 1 0 0 1 1 0 1 0 0 1 0 1 1 0 0 1 1 0 1 0 0 1 0 1 1 0 0 1 1 0 1 0 0 1 0 1 1 0 0 1 1 0 1 0 0 1 0 1 1 0 0 1 1 0 1 0 0 1 0 1 1 0 0 1 1 0 1 0 0 1 0 1 1 0 0 1 1 0 1 0 0 1 0 1 1 0 0 1 1 0 1 0 0 1 0 1 1 0 0 1 1 0 1 0 0 1 0 1 1 0 0 1 1 0 1 0 0 1 0 1 1 0 0 1 1 0 1 0 0 1 0 1 1 0 0 1 1 0 1 0 0 1 0 1 1 0 0 1 1 0 1 0 0 1 0 1 1 0 0 1 1 0 1 0 0 1 0 1 1 0 0 1 1 0 1 0 0 1 0 1 1 0 0 1 1 0 1 0 0 1 0 1 1 0 0 1 1 0 1 0 0 1 0 1 1 0 0 1 1 0 1 0 0 1 0 1 1 0 0 1 1 0 1 0 0 1 0 1 1 0 0 1 1 0 1 0 0 1 0 1 1 0 0 1 1 0 1 0 0 1 0 1 1 0 0 1 1 0 1 0 0 1 0 1 1 0 0 1 1 0 1 0 0 1 0 1 1 0 0 1 1 0 1 0 0 1 0 1 1 0 0 1 1 0 1 0 0 1 0 1 1 0 0 1 1 0 1 0 0 1 0 1 1 0 0 1 1 0 1 0 0 1 0 1 1 0 0 1 1 0 1 0 0 1 0 1 1 0 0 1 1 0 1 0 0 1 0 1 1 0 0 1 1 0 1 0 0 1 0 1 1 0 0 1 1 0 1 0 0 1 0 1 1 0 0 1 1 0 1 0 0 1 0 1 1 0 0 1 1 0 1 0 0 1 0 1 1 0 0 1 1 0 1 0 0 1 0 1 1 0 0 1 1 0 1 0 0 1 0 1 1 0 0 1 1 0 1 0 0 1 0 1 1 0 0 1 1 0 1 0 0 1 0 1 1 0 0 1 1 0 1 0 0 1 0 1 1 0 0 1 1 0 1 0 0 1 0 1 1 0 0 1 1 0 1 0 0 1 0 1 1 0 0 1 1 0 1 0 0 1 0 1 1 0 0 1 1 0 1 0 0 1 0 1 1 0 0 1 1 0 1 0 0 1 0 1 1 0 0 1 1 0 1 0 0 1 0 1 1 0 0 1 1 0 1 0 0 1 0 1 1 0 0 1 1 0 1 0 0 1 0 1 1 0 0 1 1 0 1 0 0 1 0 1 1 0 0 1 1 0 1 0 0 1 0 1 1 0 0 1 1 0 1 0 0 1 0 1 1 0 0 1 1 0 1 0 0 1 0 1 1 0 0 1 1 0 1 0 0 1 0 1 1 0 0 1 1 0 1 0 0 1 0 1 1 0 0 1 1 0 1 0 0 1 0 1 1 0 0 1 1 0 1 0 0 1 0 1 1 0 0 1 1 0 1 0 0 1 0 1 1 0 0 1 1 0 1 0 0 1 0 1 1 0 0 1 1 0 1 0 0 1 0 1 1 0 0 1 1 0 1 0 0 1 0 1 1 0 0 1 1 0 1 0 0 1 0 1 1 0 0 1 1 0 1 0 0 1 0 1 1 0 0 1 1 0 1 0 0 1 0 1 1 0 0 1 1 0 1 0 0 1 0 1 1 0 0 1 1 0 1 0 0 1 0 1 1 0 0 1 1 0 1 0 0 1 0 1 1 0 0 1 1 0 1 0 0 1 0 1 1 0 0 1 1 0 1 0 0 1 0 1 1 0 0 1 1 0 1 0 0 1 0 1 1 0 0 1 1 0 1 0 0 1 0 1 1 0 0 1 1 0 1 0 0 1 0 1 1 0 0 1 1 0 1 0 0 1 0 1 1 0 0 1 1 0 1 0 0 1 0 1 1 0 0 1 1 0 1 0 0 1 0 1 1 0 0 1 1 0 1 0 0 1 0 1 1 0 0 1 1 0 1 0 0 1 0 1 1 0 0 1 1 0 1 0 0 1 0 1 1 0 0 1 1 0 1 0 0 1 0 1 1 0 0 1 1 0 1 0 0 1 0 1 1 0 0 1 1 0 1 0 0 1 0 1 1 0 0 1 1 0 1 0 0 1 0 1 1 0 0 1 1 0 1 0 0 1 0 1 1 0 0 1 1 0 1 0 0 1 0 1 1 0 0 1 1 0 1 0 0 1 0 1 1 0 0 1 1 0 1 0 0 1 0 1 1 0 0 1 1 0 1 0 0 1 0 1 1 0 0 1 1 0 1 0 0 1 0 1 1 0 0 1 1 0 1 0 0 1 0 1 1 0 0 1 1 0 1 0 0 1 0 1 1 0 0 1 1 0 1 0 0 1 0 1 1 0 0 1 1 0 1 0 0 1 0 1 1 0 0 1 1 0 1 0 0 1 0 1 1 0 0 1 1 0 1 0 0 1 0 1 1 0 0 1 1 0 1 0 0 1 0 1 1 0 0 1 1 0 1 0 0 1 0 1 1 0 0 1 1 0 1 0 0 1 0 1 1 0 0 1 1 0 1 0 0 1 0 1 1 0 0 1 1 0 1 0 0 1 0 1 1 0 0 1 1 0 1 0 0 1 0 1 1 0 0 1 1 0 1 0 0 1 0 1 1 0 0 1 1 0 1 0 0 1 0 1 1 0 0 1 1 0 1 0 0 1 0 1 1 0 0 1 1 0 1 0 0 1 0 1 1 0 0 1 1 0 1 0 0 1 0 1 1 0 0 1 1 0 1 0 0 1 0 1 1 0 0 1 1 0 1 0 0 1 0 1 1 0 0 1 1 0 1 0 0 1 0 1 1 0 0 1 1 0 1 0 0 1 0 1 1 0 0 1 1 0 1 0 0 1 0 1 1 0 0 1 1 0 1 0 0 1 0 1 1 0 0 1 1 0 1 0 0 1 0 1 1 0 0 1 1 0 1 0 0 1 0 1 1 0 0 1 1 0 1 0 0 1 0 1 1 0 0 1 1 0 1 0 0 1 0 1 1 0 0 1 1 0 1 0 0 1 0 1 1 0 0 1 1 0 1 0 0 1 0 1 1 0 0 1 1 0 1 0 0 1 0 1 1 0 0 1 1 0 1 0 0 1 0 1 1 0 0 1 1 0 1 0 0 1 0 1 1 0 0 1 1 0 1 0 0 1 0 1 1 0 0 1 1 0 1 0 0 1 0 1 1 0 0 1 1 0 1 0 0 1 0 1 1 0 0 1 1 0 1 0 0 1 0 1 1 0 0 1 1 0 1 0 0 1 0 1 1 0 0 1 1 0 1 0 0 1 0 1 1 0 0 1 1 0 1 0 0 1 0 1 1 0 0 1 1 0 1</float_array>
          <technique_common>
            <accessor source="#Torus-mesh-map-0-array" count="960" stride="2">
              <param name="S" type="float"/>
              <param name="T" type="float"/>
            </accessor>
          </technique_common>
        </source>
        <vertices id="Torus-mesh-vertices">
          <input semantic="POSITION" source="#Torus-mesh-positions"/>
        </vertices>
        <polylist material="Material_001" count="320">
          <input semantic="VERTEX" source="#Torus-mesh-vertices" offset="0"/>
          <input semantic="NORMAL" source="#Torus-mesh-normals" offset="1"/>
          <input semantic="TEXCOORD" source="#Torus-mesh-map-0" offset="2" set="0"/>
          <vcount>3 3 3 3 3 3 3 3 3 3 3 3 3 3 3 3 3 3 3 3 3 3 3 3 3 3 3 3 3 3 3 3 3 3 3 3 3 3 3 3 3 3 3 3 3 3 3 3 3 3 3 3 3 3 3 3 3 3 3 3 3 3 3 3 3 3 3 3 3 3 3 3 3 3 3 3 3 3 3 3 3 3 3 3 3 3 3 3 3 3 3 3 3 3 3 3 3 3 3 3 3 3 3 3 3 3 3 3 3 3 3 3 3 3 3 3 3 3 3 3 3 3 3 3 3 3 3 3 3 3 3 3 3 3 3 3 3 3 3 3 3 3 3 3 3 3 3 3 3 3 3 3 3 3 3 3 3 3 3 3 3 3 3 3 3 3 3 3 3 3 3 3 3 3 3 3 3 3 3 3 3 3 3 3 3 3 3 3 3 3 3 3 3 3 3 3 3 3 3 3 3 3 3 3 3 3 3 3 3 3 3 3 3 3 3 3 3 3 3 3 3 3 3 3 3 3 3 3 3 3 3 3 3 3 3 3 3 3 3 3 3 3 3 3 3 3 3 3 3 3 3 3 3 3 3 3 3 3 3 3 3 3 3 3 3 3 3 3 3 3 3 3 3 3 3 3 3 3 3 3 3 3 3 3 3 3 3 3 3 3 3 3 3 3 3 3 3 3 3 3 3 3 3 3 3 3 3 3 3 3 3 3 3 3 3 3 3 3 3 3 </vcount>
          <p>7 0 0 0 1 1 159 2 2 159 2 3 0 1 4 152 3 5 158 4 6 6 5 7 7 0 8 158 4 9 7 0 10 159 2 11 157 6 12 5 7 13 6 5 14 157 6 15 6 5 16 158 4 17 156 8 18 4 9 19 5 7 20 156 8 21 5 7 22 157 6 23 155 10 24 3 11 25 4 9 26 155 10 27 4 9 28 156 8 29 154 12 30 2 13 31 3 11 32 154 12 33 3 11 34 155 10 35 153 14 36 1 15 37 2 13 38 153 14 39 2 13 40 154 12 41 152 3 42 0 1 43 1 15 44 152 3 45 1 15 46 153 14 47 151 16 48 159 2 49 152 3 50 151 16 51 152 3 52 144 17 53 150 18 54 158 4 55 159 2 56 150 18 57 159 2 58 151 16 59 149 19 60 157 6 61 158 4 62 149 19 63 158 4 64 150 18 65 148 20 66 156 8 67 157 6 68 148 20 69 157 6 70 149 19 71 147 21 72 155 10 73 156 8 74 147 21 75 156 8 76 148 20 77 146 22 78 154 12 79 155 10 80 146 22 81 155 10 82 147 21 83 145 23 84 153 14 85 154 12 86 145 23 87 154 12 88 146 22 89 144 17 90 152 3 91 153 14 92 144 17 93 153 14 94 145 23 95 143 24 96 151 16 97 144 17 98 143 24 99 144 17 100 136 25 101 142 26 102 150 18 103 151 16 104 142 26 105 151 16 106 143 24 107 141 27 108 149 19 109 150 18 110 141 27 111 150 18 112 142 26 113 140 28 114 148 20 115 149 19 116 140 28 117 149 19 118 141 27 119 139 29 120 147 21 121 148 20 122 139 29 123 148 20 124 140 28 125 138 30 126 146 22 127 147 21 128 138 30 129 147 21 130 139 29 131 137 31 132 145 23 133 146 22 134 137 31 135 146 22 136 138 30 137 136 25 138 144 17 139 145 23 140 136 25 141 145 23 142 137 31 143 135 32 144 143 24 145 136 25 146 135 32 147 136 25 148 128 33 149 134 34 150 142 26 151 143 24 152 134 34 153 143 24 154 135 32 155 133 35 156 141 27 157 142 26 158 133 35 159 142 26 160 134 34 161 132 36 162 140 28 163 141 27 164 132 36 165 141 27 166 133 35 167 131 37 168 139 29 169 140 28 170 131 37 171 140 28 172 132 36 173 130 38 174 138 30 175 139 29 176 130 38 177 139 29 178 131 37 179 129 39 180 137 31 181 138 30 182 129 39 183 138 30 184 130 38 185 128 33 186 136 25 187 137 31 188 128 33 189 137 31 190 129 39 191 127 40 192 135 32 193 128 33 194 127 40 195 128 33 196 120 41 197 126 42 198 134 34 199 135 32 200 126 42 201 135 32 202 127 40 203 125 43 204 133 35 205 134 34 206 125 43 207 134 34 208 126 42 209 124 44 210 132 36 211 133 35 212 124 44 213 133 35 214 125 43 215 123 45 216 131 37 217 132 36 218 123 45 219 132 36 220 124 44 221 122 46 222 130 38 223 131 37 224 122 46 225 131 37 226 123 45 227 121 47 228 129 39 229 130 38 230 121 47 231 130 38 232 122 46 233 120 41 234 128 33 235 129 39 236 120 41 237 129 39 238 121 47 239 119 48 240 127 40 241 120 41 242 119 48 243 120 41 244 112 49 245 118 50 246 126 42 247 127 40 248 118 50 249 127 40 250 119 48 251 117 51 252 125 43 253 126 42 254 117 51 255 126 42 256 118 50 257 116 52 258 124 44 259 125 43 260 116 52 261 125 43 262 117 51 263 115 53 264 123 45 265 124 44 266 115 53 267 124 44 268 116 52 269 114 54 270 122 46 271 123 45 272 114 54 273 123 45 274 115 53 275 113 55 276 121 47 277 122 46 278 113 55 279 122 46 280 114 54 281 112 49 282 120 41 283 121 47 284 112 49 285 121 47 286 113 55 287 111 56 288 119 48 289 112 49 290 111 56 291 112 49 292 104 57 293 110 58 294 118 50 295 119 48 296 110 58 297 119 48 298 111 56 299 109 59 300 117 51 301 118 50 302 109 59 303 118 50 304 110 58 305 108 60 306 116 52 307 117 51 308 108 60 309 117 51 310 109 59 311 107 61 312 115 53 313 116 52 314 107 61 315 116 52 316 108 60 317 106 62 318 114 54 319 115 53 320 106 62 321 115 53 322 107 61 323 105 63 324 113 55 325 114 54 326 105 63 327 114 54 328 106 62 329 104 57 330 112 49 331 113 55 332 104 57 333 113 55 334 105 63 335 103 64 336 111 56 337 104 57 338 103 64 339 104 57 340 96 65 341 102 66 342 110 58 343 111 56 344 102 66 345 111 56 346 103 64 347 101 67 348 109 59 349 110 58 350 101 67 351 110 58 352 102 66 353 100 68 354 108 60 355 109 59 356 100 68 357 109 59 358 101 67 359 99 69 360 107 61 361 108 60 362 99 69 363 108 60 364 100 68 365 98 70 366 106 62 367 107 61 368 98 70 369 107 61 370 99 69 371 97 71 372 105 63 373 106 62 374 97 71 375 106 62 376 98 70 377 96 65 378 104 57 379 105 63 380 96 65 381 105 63 382 97 71 383 95 72 384 103 64 385 96 65 386 95 72 387 96 65 388 88 73 389 94 74 390 102 66 391 103 64 392 94 74 393 103 64 394 95 72 395 93 75 396 101 67 397 102 66 398 93 75 399 102 66 400 94 74 401 92 76 402 100 68 403 101 67 404 92 76 405 101 67 406 93 75 407 91 77 408 99 69 409 100 68 410 91 77 411 100 68 412 92 76 413 90 78 414 98 70 415 99 69 416 90 78 417 99 69 418 91 77 419 89 79 420 97 71 421 98 70 422 89 79 423 98 70 424 90 78 425 88 73 426 96 65 427 97 71 428 88 73 429 97 71 430 89 79 431 87 80 432 95 72 433 88 73 434 87 80 435 88 73 436 80 81 437 86 82 438 94 74 439 95 72 440 86 82 441 95 72 442 87 80 443 85 83 444 93 75 445 94 74 446 85 83 447 94 74 448 86 82 449 84 84 450 92 76 451 93 75 452 84 84 453 93 75 454 85 83 455 83 85 456 91 77 457 92 76 458 83 85 459 92 76 460 84 84 461 82 86 462 90 78 463 91 77 464 82 86 465 91 77 466 83 85 467 81 87 468 89 79 469 90 78 470 81 87 471 90 78 472 82 86 473 80 81 474 88 73 475 89 79 476 80 81 477 89 79 478 81 87 479 79 88 480 87 80 481 80 81 482 79 88 483 80 81 484 72 89 485 78 90 486 86 82 487 87 80 488 78 90 489 87 80 490 79 88 491 77 91 492 85 83 493 86 82 494 77 91 495 86 82 496 78 90 497 76 92 498 84 84 499 85 83 500 76 92 501 85 83 502 77 91 503 75 93 504 83 85 505 84 84 506 75 93 507 84 84 508 76 92 509 74 94 510 82 86 511 83 85 512 74 94 513 83 85 514 75 93 515 73 95 516 81 87 517 82 86 518 73 95 519 82 86 520 74 94 521 72 89 522 80 81 523 81 87 524 72 89 525 81 87 526 73 95 527 71 96 528 79 88 529 72 89 530 71 96 531 72 89 532 64 97 533 70 98 534 78 90 535 79 88 536 70 98 537 79 88 538 71 96 539 69 99 540 77 91 541 78 90 542 69 99 543 78 90 544 70 98 545 68 100 546 76 92 547 77 91 548 68 100 549 77 91 550 69 99 551 67 101 552 75 93 553 76 92 554 67 101 555 76 92 556 68 100 557 66 102 558 74 94 559 75 93 560 66 102 561 75 93 562 67 101 563 65 103 564 73 95 565 74 94 566 65 103 567 74 94 568 66 102 569 64 97 570 72 89 571 73 95 572 64 97 573 73 95 574 65 103 575 63 104 576 71 96 577 64 97 578 63 104 579 64 97 580 56 105 581 62 106 582 70 98 583 71 96 584 62 106 585 71 96 586 63 104 587 61 107 588 69 99 589 70 98 590 61 107 591 70 98 592 62 106 593 60 108 594 68 100 595 69 99 596 60 108 597 69 99 598 61 107 599 59 109 600 67 101 601 68 100 602 59 109 603 68 100 604 60 108 605 58 110 606 66 102 607 67 101 608 58 110 609 67 101 610 59 109 611 57 111 612 65 103 613 66 102 614 57 111 615 66 102 616 58 110 617 56 105 618 64 97 619 65 103 620 56 105 621 65 103 622 57 111 623 55 112 624 63 104 625 56 105 626 55 112 627 56 105 628 48 113 629 54 114 630 62 106 631 63 104 632 54 114 633 63 104 634 55 112 635 53 115 636 61 107 637 62 106 638 53 115 639 62 106 640 54 114 641 52 116 642 60 108 643 61 107 644 52 116 645 61 107 646 53 115 647 51 117 648 59 109 649 60 108 650 51 117 651 60 108 652 52 116 653 50 118 654 58 110 655 59 109 656 50 118 657 59 109 658 51 117 659 49 119 660 57 111 661 58 110 662 49 119 663 58 110 664 50 118 665 48 113 666 56 105 667 57 111 668 48 113 669 57 111 670 49 119 671 47 120 672 55 112 673 48 113 674 47 120 675 48 113 676 40 121 677 46 122 678 54 114 679 55 112 680 46 122 681 55 112 682 47 120 683 45 123 684 53 115 685 54 114 686 45 123 687 54 114 688 46 122 689 44 124 690 52 116 691 53 115 692 44 124 693 53 115 694 45 123 695 43 125 696 51 117 697 52 116 698 43 125 699 52 116 700 44 124 701 42 126 702 50 118 703 51 117 704 42 126 705 51 117 706 43 125 707 41 127 708 49 119 709 50 118 710 41 127 711 50 118 712 42 126 713 40 121 714 48 113 715 49 119 716 40 121 717 49 119 718 41 127 719 39 128 720 47 120 721 40 121 722 39 128 723 40 121 724 32 129 725 38 130 726 46 122 727 47 120 728 38 130 729 47 120 730 39 128 731 37 131 732 45 123 733 46 122 734 37 131 735 46 122 736 38 130 737 36 132 738 44 124 739 45 123 740 36 132 741 45 123 742 37 131 743 35 133 744 43 125 745 44 124 746 35 133 747 44 124 748 36 132 749 34 134 750 42 126 751 43 125 752 34 134 753 43 125 754 35 133 755 33 135 756 41 127 757 42 126 758 33 135 759 42 126 760 34 134 761 32 129 762 40 121 763 41 127 764 32 129 765 41 127 766 33 135 767 31 136 768 39 128 769 32 129 770 31 136 771 32 129 772 24 137 773 30 138 774 38 130 775 39 128 776 30 138 777 39 128 778 31 136 779 29 139 780 37 131 781 38 130 782 29 139 783 38 130 784 30 138 785 28 140 786 36 132 787 37 131 788 28 140 789 37 131 790 29 139 791 27 141 792 35 133 793 36 132 794 27 141 795 36 132 796 28 140 797 26 142 798 34 134 799 35 133 800 26 142 801 35 133 802 27 141 803 25 143 804 33 135 805 34 134 806 25 143 807 34 134 808 26 142 809 24 137 810 32 129 811 33 135 812 24 137 813 33 135 814 25 143 815 23 144 816 31 136 817 24 137 818 23 144 819 24 137 820 16 145 821 22 146 822 30 138 823 31 136 824 22 146 825 31 136 826 23 144 827 21 147 828 29 139 829 30 138 830 21 147 831 30 138 832 22 146 833 20 148 834 28 140 835 29 139 836 20 148 837 29 139 838 21 147 839 19 149 840 27 141 841 28 140 842 19 149 843 28 140 844 20 148 845 18 150 846 26 142 847 27 141 848 18 150 849 27 141 850 19 149 851 17 151 852 25 143 853 26 142 854 17 151 855 26 142 856 18 150 857 16 145 858 24 137 859 25 143 860 16 145 861 25 143 862 17 151 863 15 152 864 23 144 865 16 145 866 15 152 867 16 145 868 8 153 869 14 154 870 22 146 871 23 144 872 14 154 873 23 144 874 15 152 875 13 155 876 21 147 877 22 146 878 13 155 879 22 146 880 14 154 881 12 156 882 20 148 883 21 147 884 12 156 885 21 147 886 13 155 887 11 157 888 19 149 889 20 148 890 11 157 891 20 148 892 12 156 893 10 158 894 18 150 895 19 149 896 10 158 897 19 149 898 11 157 899 9 159 900 17 151 901 18 150 902 9 159 903 18 150 904 10 158 905 8 153 906 16 145 907 17 151 908 8 153 909 17 151 910 9 159 911 0 1 912 7 0 913 15 152 914 0 1 915 15 152 916 8 153 917 6 5 918 14 154 919 15 152 920 6 5 921 15 152 922 7 0 923 5 7 924 13 155 925 14 154 926 5 7 927 14 154 928 6 5 929 4 9 930 12 156 931 13 155 932 4 9 933 13 155 934 5 7 935 3 11 936 11 157 937 12 156 938 3 11 939 12 156 940 4 9 941 2 13 942 10 158 943 11 157 944 2 13 945 11 157 946 3 11 947 1 15 948 9 159 949 10 158 950 1 15 951 10 158 952 2 13 953 0 1 954 8 153 955 9 159 956 0 1 957 9 159 958 1 15 959</p>
        </polylist>
      </mesh>
    </geometry>
  </library_geometries>
  <library_animations/>
  <library_controllers/>
  <library_visual_scenes>
    <visual_scene id="Scene" name="Scene">
      <node id="Torus" type="NODE">
        <translate sid="location">0 0 0</translate>
        <rotate sid="rotationZ">0 0 1 0</rotate>
        <rotate sid="rotationY">0 1 0 0</rotate>
        <rotate sid="rotationX">1 0 0 0</rotate>
        <scale sid="scale">1 1 1</scale>
        <instance_geometry url="#Torus-mesh">
          <bind_material>
            <technique_common>
              <instance_material symbol="Material_001" target="#Material_001">
                <bind_vertex_input semantic="UVTex" input_semantic="TEXCOORD" input_set="0"/>
              </instance_material>
            </technique_common>
          </bind_material>
        </instance_geometry>
      </node>
    </visual_scene>
  </library_visual_scenes>
  <scene>
    <instance_visual_scene url="#Scene"/>
  </scene>
</COLLADA>