<?xml version="1.0" encoding="utf-8"?>
<COLLADA xmlns="http://www.collada.org/2005/11/COLLADASchema" version="1.4.1">
  <asset>
    <contributor>
      <author>Blender User</author>
      <authoring_tool>Blender 2.72.0 commit date:2014-10-21, commit time:11:38, hash:9e963ae</authoring_tool>
    </contributor>
    <created>2014-12-22T20:45:46</created>
    <modified>2014-12-22T20:45:46</modified>
    <unit name="meter" meter="1"/>
    <up_axis>Z_UP</up_axis>
  </asset>
  <library_images/>
  <library_geometries>
    <geometry id="Torus_006-mesh" name="Torus.006">
      <mesh>
        <source id="Torus_006-mesh-positions">
          <float_array id="Torus_006-mesh-positions-array" count="216">0 0 -1.05 0.04330122 0 -0.975 -0.04330128 0 -0.975 0 0.2717599 -1.014222 0.04330122 0.2523486 -0.9417777 -0.04330128 0.2523486 -0.9417777 0 0.5250001 -0.9093266 0.04330122 0.4875001 -0.8443748 -0.04330128 0.4875001 -0.8443748 0 0.7424622 -0.742462 0.04330122 0.6894292 -0.6894291 -0.04330128 0.6894292 -0.6894291 0 0.9093266 -0.5249999 0.04330122 0.8443748 -0.4875 -0.04330128 0.8443748 -0.4875 0 1.014222 -0.2717599 0.04330122 0.9417777 -0.2523486 -0.04330122 0.9417777 -0.2523486 0 1.05 0 0.04330122 0.9750001 0 -0.04330122 0.9750001 0 0 1.014222 0.2717598 0.04330128 0.9417778 0.2523485 -0.04330122 0.9417778 0.2523485 0 0.9093267 0.5249999 0.04330128 0.8443749 0.4874999 -0.04330122 0.8443749 0.4874999 0 0.7424619 0.7424623 0.04330128 0.6894289 0.6894292 -0.04330122 0.6894289 0.6894292 0 0.5250003 0.9093265 0.04330128 0.4875003 0.8443747 -0.04330122 0.4875003 0.8443747 0 0.2717599 1.014222 0.04330128 0.2523484 0.9417777 -0.04330122 0.2523484 0.9417777 0 0 1.05 0.04330128 0 0.975 -0.04330122 0 0.975 0 -0.2717599 1.014222 0.04330128 -0.2523484 0.9417777 -0.04330122 -0.2523484 0.9417777 0 -0.5249999 0.9093268 0.04330128 -0.4874998 0.844375 -0.04330122 -0.4874998 0.844375 0 -0.7424619 0.7424623 0.04330128 -0.6894289 0.6894292 -0.04330122 -0.6894289 0.6894292 0 -0.9093267 0.5249999 0.04330128 -0.8443749 0.4874999 -0.04330122 -0.8443749 0.4874999 0 -1.014222 0.2717602 0.04330128 -0.9417776 0.2523489 -0.04330122 -0.9417776 0.2523489 0 -1.05 0 0.04330122 -0.9750001 0 -0.04330122 -0.9750001 0 0 -1.014222 -0.2717595 0.04330122 -0.9417778 -0.2523482 -0.04330128 -0.9417778 -0.2523482 0 -0.9093266 -0.5249999 0.04330122 -0.8443748 -0.4875 -0.04330128 -0.8443748 -0.4875 0 -0.7424625 -0.7424618 0.04330122 -0.6894295 -0.6894288 -0.04330128 -0.6894295 -0.6894288 0 -0.5250001 -0.9093266 0.04330122 -0.4875001 -0.8443748 -0.04330128 -0.4875001 -0.8443748 0 -0.2717597 -1.014222 0.04330122 -0.2523483 -0.9417778 -0.04330128 -0.2523483 -0.9417778</float_array>
          <technique_common>
            <accessor source="#Torus_006-mesh-positions-array" count="72" stride="3">
              <param name="X" type="float"/>
              <param name="Y" type="float"/>
              <param name="Z" type="float"/>
            </accessor>
          </technique_common>
        </source>
        <source id="Torus_006-mesh-normals">
          <float_array id="Torus_006-mesh-normals-array" count="432">0.8641552 0.06568408 -0.4989203 0 -0.1305262 0.9914449 -0.8641552 0.06568408 -0.4989203 0.8641548 0.1925762 -0.4649203 0 -0.3826833 0.9238796 -0.8641548 0.1925762 -0.4649203 0.8641551 0.3063443 -0.3992356 0 -0.6087618 0.7933531 -0.8641552 0.3063443 -0.3992356 0.8641549 0.3992359 -0.3063445 0 -0.7933534 0.6087614 -0.8641549 0.3992359 -0.3063444 0.8641548 0.4649203 -0.1925762 0 -0.9238795 0.3826835 -0.8641548 0.4649203 -0.1925762 0.8641552 0.4989203 -0.06568443 0 -0.9914449 0.1305264 -0.8641552 0.4989203 -0.06568437 0.8641551 0.4989205 0.06568408 0 -0.9914449 -0.1305262 -0.8641551 0.4989205 0.06568413 0.864155 0.4649201 0.1925761 0 -0.9238796 -0.3826833 -0.864155 0.4649201 0.1925761 0.8641552 0.3992356 0.3063444 0 -0.793353 -0.6087619 -0.8641551 0.3992355 0.3063445 0.8641549 0.3063446 0.3992359 0 -0.6087619 -0.793353 -0.8641549 0.3063446 0.3992359 0.8641553 0.1925759 0.4649198 0 -0.3826832 -0.9238797 -0.8641552 0.1925759 0.4649198 0.8641551 0.06568402 0.4989206 0 -0.1305263 -0.9914449 -0.864155 0.06568413 0.4989206 0.8641552 -0.06568396 0.4989203 0 0.1305262 -0.9914449 -0.8641552 -0.06568396 0.4989203 0.864155 -0.192576 0.46492 0 0.3826829 -0.9238798 -0.864155 -0.192576 0.4649201 0.8641552 -0.3063443 0.3992354 0 0.6087617 -0.7933531 -0.8641551 -0.3063444 0.3992354 0.8641549 -0.3992359 0.3063446 0 0.793353 -0.6087619 -0.8641549 -0.3992357 0.3063448 0.8641548 -0.4649204 0.1925761 0 0.9238797 -0.3826833 -0.8641547 -0.4649204 0.1925761 0.8641552 -0.4989202 0.06568449 0 0.9914448 -0.1305266 -0.8641552 -0.4989202 0.06568455 0.8641549 -0.4989209 -0.06568419 0 0.9914448 0.1305262 -0.8641549 -0.4989209 -0.06568413 0.864155 -0.46492 -0.1925762 0 0.9238796 0.3826834 -0.864155 -0.4649201 -0.1925761 0.8641551 -0.399236 -0.3063442 0 0.7933537 0.608761 -0.8641551 -0.399236 -0.3063441 0.8641548 -0.3063448 -0.399236 0 0.6087617 0.7933532 -0.8641548 -0.3063448 -0.399236 0.864155 -0.192576 -0.4649201 0 0.3826832 0.9238797 -0.864155 -0.192576 -0.46492 0.864155 -0.06568408 -0.4989206 0 0.1305261 0.9914448 -0.8641551 -0.06568408 -0.4989206 0.864155 0.06568402 -0.4989206 0 -0.1305262 0.9914449 -0.864155 0.06568402 -0.4989205 0.8641551 0.1925762 -0.4649198 0 -0.3826833 0.9238796 -0.8641552 0.1925762 -0.4649197 0.8641548 0.3063447 -0.3992359 0 -0.6087618 0.7933531 -0.8641548 0.3063448 -0.3992359 0.8641551 0.3992357 -0.3063442 0 -0.7933533 0.6087614 -0.8641551 0.3992357 -0.3063441 0.864155 0.46492 -0.1925762 0 -0.9238795 0.3826835 -0.864155 0.46492 -0.1925762 0.8641548 0.4989208 -0.06568431 0 -0.9914449 0.1305264 -0.8641548 0.4989208 -0.06568425 0.8641552 0.4989202 0.06568413 0 -0.9914449 -0.1305262 -0.8641552 0.4989203 0.06568419 0.864155 0.4649201 0.1925761 0 -0.9238796 -0.3826833 -0.864155 0.4649201 0.1925761 0.8641549 0.3992358 0.3063447 0 -0.793353 -0.6087619 -0.8641549 0.3992359 0.3063446 0.8641552 0.3063445 0.3992353 0 -0.6087619 -0.793353 -0.8641552 0.3063445 0.3992354 0.8641549 0.1925763 0.4649202 0 -0.3826832 -0.9238797 -0.8641549 0.1925763 0.4649202 0.8641552 0.06568408 0.4989202 0 -0.1305263 -0.9914449 -0.8641552 0.06568402 0.4989203 0.864155 -0.06568408 0.4989205 0 0.1305262 -0.9914449 -0.864155 -0.06568413 0.4989206 0.8641552 -0.1925757 0.4649197 0 0.3826829 -0.9238798 -0.8641552 -0.1925758 0.4649198 0.864155 -0.3063444 0.3992357 0 0.6087617 -0.7933531 -0.864155 -0.3063445 0.3992358 0.8641552 -0.3992355 0.3063445 0 0.793353 -0.6087619 -0.864155 -0.3992356 0.3063444 0.8641549 -0.4649201 0.192576 0 0.9238796 -0.3826833 -0.8641549 -0.4649201 0.1925761 0.8641549 -0.4989209 0.06568437 0 0.9914448 -0.1305266 -0.8641549 -0.4989209 0.06568443 0.8641551 -0.4989203 -0.06568431 0 0.9914448 0.1305262 -0.8641551 -0.4989203 -0.06568425 0.8641548 -0.4649204 -0.1925762 0 0.9238796 0.3826834 -0.8641548 -0.4649204 -0.1925761 0.8641549 -0.399236 -0.3063442 0 0.7933537 0.608761 -0.8641549 -0.3992361 -0.3063442 0.8641549 -0.3063445 -0.3992359 0 0.6087617 0.7933532 -0.864155 -0.3063444 -0.3992357 0.8641548 -0.1925762 -0.4649203 0 0.3826832 0.9238797 -0.8641549 -0.1925762 -0.4649202 0.864155 -0.06568408 -0.4989206 0 0.1305261 0.991445 -0.8641551 -0.06568408 -0.4989206</float_array>
          <technique_common>
            <accessor source="#Torus_006-mesh-normals-array" count="144" stride="3">
              <param name="X" type="float"/>
              <param name="Y" type="float"/>
              <param name="Z" type="float"/>
            </accessor>
          </technique_common>
        </source>
        <source id="Torus_006-mesh-map-0">
          <float_array id="Torus_006-mesh-map-0-array" count="864">1 0 1 1 0 1 0 0 1 0 1 1 1 0 1 1 0 1 1 0 1 1 0 1 0 0 1 0 1 1 0 0 1 0 1 1 0 0 1 0 1 1 0 0 1 0 1 1 1 0 1 1 0 1 1 0 1 1 0 1 0 0 1 0 1 1 0 0 1 0 1 1 0 0 1 0 1 1 0 0 1 0 1 1 1 0 1 1 0 1 0 0 1 0 1 1 0 0 1 0 1 1 1 0 1 1 0 1 1 0 1 1 0 1 0 0 1 0 1 1 0 0 1 0 1 1 1 0 1 1 0 1 0 0 1 0 1 1 0 0 1 0 1 1 0 0 1 0 1 1 0 0 1 0 1 1 0 0 1 0 1 1 0 0 1 0 1 1 0 0 1 0 1 1 1 0 1 1 0 1 1 0 1 1 0 1 0 0 1 0 1 1 0 0 1 0 1 1 0 0 1 0 1 1 0 0 1 0 1 1 0 0 1 0 1 1 0 0 1 0 1 1 0 0 1 0 1 1 1 0 1 1 0 1 0 0 1 0 1 1 1 0 1 1 0 1 1 0 1 1 0 1 1 0 1 1 0 1 0 0 1 0 1 1 0 0 1 0 1 1 0 0 1 0 1 1 0 0 1 0 1 1 0 0 1 0 1 1 0 0 1 0 1 1 1 0 1 1 0 1 1 0 1 1 0 1 0 0 1 0 1 1 1 0 1 1 0 1 1 0 1 1 0 1 1 0 1 1 0 1 1 0 1 1 0 1 0 0 1 0 1 1 1 0 1 1 0 1 0 0 1 0 1 1 0 0 1 0 1 1 0 0 1 0 1 1 0 0 1 0 1 1 1 0 1 1 0 1 1 0 1 1 0 1 0 0 1 0 1 1 0 0 1 0 1 1 1 0 1 1 0 1 1 0 1 1 0 1 0 0 1 0 1 1 0 0 1 0 1 1 0 0 1 0 1 1 1 0 1 1 0 1 0 0 1 0 0 1 0 1 0 0 1 1 0 0 1 0 0 1 0 0 1 0 0 1 0 1 0 0 1 1 0 1 0 0 1 1 0 1 0 0 1 1 0 1 0 0 1 1 0 0 1 0 0 1 0 0 1 0 0 1 0 1 0 0 1 1 0 1 0 0 1 1 0 1 0 0 1 1 0 1 0 0 1 1 0 0 1 0 0 1 0 1 0 0 1 1 0 1 0 0 1 1 0 0 1 0 0 1 0 0 1 0 0 1 0 1 0 0 1 1 0 1 0 0 1 1 0 0 1 0 0 1 0 1 0 0 1 1 0 1 0 0 1 1 0 1 0 0 1 1 0 1 0 0 1 1 0 1 0 0 1 1 0 1 0 0 1 1 0 1 0 0 1 1 0 0 1 0 0 1 0 0 1 0 0 1 0 1 0 0 1 1 0 1 0 0 1 1 0 1 0 0 1 1 0 1 0 0 1 1 0 1 0 0 1 1 0 1 0 0 1 1 0 1 0 0 1 1 0 0 1 0 0 1 0 1 0 0 1 1 0 0 1 0 0 1 0 0 1 0 0 1 0 0 1 0 0 1 0 1 0 0 1 1 0 1 0 0 1 1 0 1 0 0 1 1 0 1 0 0 1 1 0 1 0 0 1 1 0 1 0 0 1 1 0 0 1 0 0 1 0 0 1 0 0 1 0 1 0 0 1 1 0 0 1 0 0 1 0 0 1 0 0 1 0 0 1 0 0 1 0 0 1 0 0 1 0 1 0 0 1 1 0 0 1 0 0 1 0 1 0 0 1 1 0 1 0 0 1 1 0 1 0 0 1 1 0 1 0 0 1 1 0 0 1 0 0 1 0 0 1 0 0 1 0 1 0 0 1 1 0 1 0 0 1 1 0 0 1 0 0 1 0 0 1 0 0 1 0 1 0 0 1 1 0 1 0 0 1 1 0 1 0 0 1 1 0 0 1 0 0 1</float_array>
          <technique_common>
            <accessor source="#Torus_006-mesh-map-0-array" count="432" stride="2">
              <param name="S" type="float"/>
              <param name="T" type="float"/>
            </accessor>
          </technique_common>
        </source>
        <vertices id="Torus_006-mesh-vertices">
          <input semantic="POSITION" source="#Torus_006-mesh-positions"/>
        </vertices>
        <polylist count="144">
          <input semantic="VERTEX" source="#Torus_006-mesh-vertices" offset="0"/>
          <input semantic="NORMAL" source="#Torus_006-mesh-normals" offset="1"/>
          <input semantic="TEXCOORD" source="#Torus_006-mesh-map-0" offset="2" set="0"/>
          <vcount>3 3 3 3 3 3 3 3 3 3 3 3 3 3 3 3 3 3 3 3 3 3 3 3 3 3 3 3 3 3 3 3 3 3 3 3 3 3 3 3 3 3 3 3 3 3 3 3 3 3 3 3 3 3 3 3 3 3 3 3 3 3 3 3 3 3 3 3 3 3 3 3 3 3 3 3 3 3 3 3 3 3 3 3 3 3 3 3 3 3 3 3 3 3 3 3 3 3 3 3 3 3 3 3 3 3 3 3 3 3 3 3 3 3 3 3 3 3 3 3 3 3 3 3 3 3 3 3 3 3 3 3 3 3 3 3 3 3 3 3 3 3 3 3 </vcount>
          <p>3 0 0 4 0 1 1 0 2 1 1 3 4 1 4 5 1 5 2 2 6 5 2 7 3 2 8 6 3 9 7 3 10 4 3 11 4 4 12 7 4 13 8 4 14 5 5 15 8 5 16 6 5 17 6 6 18 9 6 19 10 6 20 7 7 21 10 7 22 11 7 23 11 8 24 9 8 25 6 8 26 12 9 27 13 9 28 10 9 29 10 10 30 13 10 31 14 10 32 11 11 33 14 11 34 12 11 35 12 12 36 15 12 37 16 12 38 13 13 39 16 13 40 17 13 41 17 14 42 15 14 43 12 14 44 15 15 45 18 15 46 19 15 47 16 16 48 19 16 49 20 16 50 20 17 51 18 17 52 15 17 53 21 18 54 22 18 55 19 18 56 19 19 57 22 19 58 23 19 59 20 20 60 23 20 61 21 20 62 24 21 63 25 21 64 22 21 65 22 22 66 25 22 67 26 22 68 23 23 69 26 23 70 24 23 71 24 24 72 27 24 73 28 24 74 25 25 75 28 25 76 29 25 77 26 26 78 29 26 79 27 26 80 27 27 81 30 27 82 31 27 83 28 28 84 31 28 85 32 28 86 32 29 87 30 29 88 27 29 89 33 30 90 34 30 91 31 30 92 31 31 93 34 31 94 35 31 95 32 32 96 35 32 97 33 32 98 33 33 99 36 33 100 37 33 101 34 34 102 37 34 103 38 34 104 35 35 105 38 35 106 36 35 107 36 36 108 39 36 109 40 36 110 37 37 111 40 37 112 41 37 113 41 38 114 39 38 115 36 38 116 39 39 117 42 39 118 43 39 119 43 40 120 44 40 121 41 40 122 44 41 123 42 41 124 39 41 125 45 42 126 46 42 127 43 42 128 43 43 129 46 43 130 47 43 131 44 44 132 47 44 133 45 44 134 45 45 135 48 45 136 49 45 137 46 46 138 49 46 139 50 46 140 47 47 141 50 47 142 48 47 143 48 48 144 51 48 145 52 48 146 52 49 147 53 49 148 50 49 149 53 50 150 51 50 151 48 50 152 51 51 153 54 51 154 55 51 155 55 52 156 56 52 157 53 52 158 56 53 159 54 53 160 51 53 161 57 54 162 58 54 163 55 54 164 58 55 165 59 55 166 56 55 167 56 56 168 59 56 169 57 56 170 60 57 171 61 57 172 58 57 173 58 58 174 61 58 175 62 58 176 59 59 177 62 59 178 60 59 179 60 60 180 63 60 181 64 60 182 61 61 183 64 61 184 65 61 185 65 62 186 63 62 187 60 62 188 66 63 189 67 63 190 64 63 191 64 64 192 67 64 193 68 64 194 65 65 195 68 65 196 66 65 197 69 66 198 70 66 199 67 66 200 70 67 201 71 67 202 68 67 203 68 68 204 71 68 205 69 68 206 69 69 207 0 69 208 1 69 209 70 70 210 1 70 211 2 70 212 2 71 213 0 71 214 69 71 215 0 72 216 3 72 217 1 72 218 2 73 219 1 73 220 5 73 221 0 74 222 2 74 223 3 74 224 3 75 225 6 75 226 4 75 227 5 76 228 4 76 229 8 76 230 3 77 231 5 77 232 6 77 233 7 78 234 6 78 235 10 78 236 8 79 237 7 79 238 11 79 239 8 80 240 11 80 241 6 80 242 9 81 243 12 81 244 10 81 245 11 82 246 10 82 247 14 82 248 9 83 249 11 83 250 12 83 251 13 84 252 12 84 253 16 84 254 14 85 255 13 85 256 17 85 257 14 86 258 17 86 259 12 86 260 16 87 261 15 87 262 19 87 263 17 88 264 16 88 265 20 88 266 17 89 267 20 89 268 15 89 269 18 90 270 21 90 271 19 90 272 20 91 273 19 91 274 23 91 275 18 92 276 20 92 277 21 92 278 21 93 279 24 93 280 22 93 281 23 94 282 22 94 283 26 94 284 21 95 285 23 95 286 24 95 287 25 96 288 24 96 289 28 96 290 26 97 291 25 97 292 29 97 293 24 98 294 26 98 295 27 98 296 28 99 297 27 99 298 31 99 299 29 100 300 28 100 301 32 100 302 29 101 303 32 101 304 27 101 305 30 102 306 33 102 307 31 102 308 32 103 309 31 103 310 35 103 311 30 104 312 32 104 313 33 104 314 34 105 315 33 105 316 37 105 317 35 106 318 34 106 319 38 106 320 33 107 321 35 107 322 36 107 323 37 108 324 36 108 325 40 108 326 38 109 327 37 109 328 41 109 329 38 110 330 41 110 331 36 110 332 40 111 333 39 111 334 43 111 335 40 112 336 43 112 337 41 112 338 41 113 339 44 113 340 39 113 341 42 114 342 45 114 343 43 114 344 44 115 345 43 115 346 47 115 347 42 116 348 44 116 349 45 116 350 46 117 351 45 117 352 49 117 353 47 118 354 46 118 355 50 118 356 45 119 357 47 119 358 48 119 359 49 120 360 48 120 361 52 120 362 49 121 363 52 121 364 50 121 365 50 122 366 53 122 367 48 122 368 52 123 369 51 123 370 55 123 371 52 124 372 55 124 373 53 124 374 53 125 375 56 125 376 51 125 377 54 126 378 57 126 379 55 126 380 55 127 381 58 127 382 56 127 383 54 128 384 56 128 385 57 128 386 57 129 387 60 129 388 58 129 389 59 130 390 58 130 391 62 130 392 57 131 393 59 131 394 60 131 395 61 132 396 60 132 397 64 132 398 62 133 399 61 133 400 65 133 401 62 134 402 65 134 403 60 134 404 63 135 405 66 135 406 64 135 407 65 136 408 64 136 409 68 136 410 63 137 411 65 137 412 66 137 413 66 138 414 69 138 415 67 138 416 67 139 417 70 139 418 68 139 419 66 140 420 68 140 421 69 140 422 70 141 423 69 141 424 1 141 425 71 142 426 70 142 427 2 142 428 71 143 429 2 143 430 69 143 431</p>
        </polylist>
      </mesh>
    </geometry>
    <geometry id="Torus_007-mesh" name="Torus.007">
      <mesh>
        <source id="Torus_007-mesh-positions">
          <float_array id="Torus_007-mesh-positions-array" count="216">1.05 0 0 0.975 0 0.04330122 0.975 0 -0.04330122 1.014222 0.2717599 0 0.9417777 0.2523486 0.04330122 0.9417777 0.2523486 -0.04330122 0.9093266 0.5250001 0 0.8443748 0.4875001 0.04330122 0.8443748 0.4875001 -0.04330122 0.742462 0.7424622 0 0.6894291 0.6894292 0.04330122 0.6894291 0.6894292 -0.04330122 0.5249999 0.9093266 0 0.4875 0.8443748 0.04330122 0.4875 0.8443748 -0.04330122 0.2717599 1.014222 0 0.2523486 0.9417777 0.04330122 0.2523486 0.9417777 -0.04330122 0 1.05 0 0 0.9750001 0.04330122 0 0.9750001 -0.04330122 -0.2717598 1.014222 0 -0.2523485 0.9417778 0.04330122 -0.2523485 0.9417778 -0.04330122 -0.5249999 0.9093267 0 -0.4874999 0.8443749 0.04330122 -0.4874999 0.8443749 -0.04330122 -0.7424623 0.7424619 0 -0.6894292 0.6894289 0.04330122 -0.6894292 0.6894289 -0.04330122 -0.9093265 0.5250003 0 -0.8443747 0.4875003 0.04330122 -0.8443747 0.4875003 -0.04330122 -1.014222 0.2717599 0 -0.9417777 0.2523484 0.04330122 -0.9417777 0.2523484 -0.04330122 -1.05 0 0 -0.975 0 0.04330122 -0.975 0 -0.04330122 -1.014222 -0.2717599 0 -0.9417777 -0.2523484 0.04330122 -0.9417777 -0.2523484 -0.04330122 -0.9093268 -0.5249999 0 -0.844375 -0.4874998 0.04330122 -0.844375 -0.4874998 -0.04330122 -0.7424623 -0.7424619 0 -0.6894292 -0.6894289 0.04330122 -0.6894292 -0.6894289 -0.04330122 -0.5249999 -0.9093267 0 -0.4874999 -0.8443749 0.04330122 -0.4874999 -0.8443749 -0.04330122 -0.2717602 -1.014222 0 -0.2523489 -0.9417776 0.04330122 -0.2523489 -0.9417776 -0.04330122 0 -1.05 0 0 -0.9750001 0.04330122 0 -0.9750001 -0.04330122 0.2717595 -1.014222 0 0.2523482 -0.9417778 0.04330122 0.2523482 -0.9417778 -0.04330122 0.5249999 -0.9093266 0 0.4875 -0.8443748 0.04330122 0.4875 -0.8443748 -0.04330122 0.7424618 -0.7424625 0 0.6894288 -0.6894295 0.04330122 0.6894288 -0.6894295 -0.04330122 0.9093266 -0.5250001 0 0.8443748 -0.4875001 0.04330122 0.8443748 -0.4875001 -0.04330122 1.014222 -0.2717597 0 0.9417778 -0.2523483 0.04330122 0.9417778 -0.2523483 -0.04330122</float_array>
          <technique_common>
            <accessor source="#Torus_007-mesh-positions-array" count="72" stride="3">
              <param name="X" type="float"/>
              <param name="Y" type="float"/>
              <param name="Z" type="float"/>
            </accessor>
          </technique_common>
        </source>
        <source id="Torus_007-mesh-normals">
          <float_array id="Torus_007-mesh-normals-array" count="432">0.4989203 0.06568408 0.8641552 -0.9914449 -0.1305262 0 0.4989203 0.06568408 -0.8641552 0.4649203 0.1925762 0.8641548 -0.9238796 -0.3826833 0 0.4649203 0.1925762 -0.8641548 0.3992356 0.3063443 0.8641551 -0.7933531 -0.6087618 0 0.3992356 0.3063443 -0.8641551 0.3063445 0.3992359 0.8641549 -0.6087614 -0.7933534 0 0.3063445 0.3992359 -0.8641549 0.1925762 0.4649203 0.8641548 -0.3826835 -0.9238795 0 0.1925762 0.4649203 -0.8641548 0.06568443 0.4989203 0.8641552 -0.1305264 -0.9914449 0 0.06568443 0.4989203 -0.8641552 -0.06568413 0.4989205 0.8641551 0.1305262 -0.9914449 0 -0.06568413 0.4989205 -0.8641551 -0.1925761 0.4649201 0.864155 0.3826833 -0.9238796 0 -0.1925761 0.4649201 -0.864155 -0.3063444 0.3992356 0.8641552 0.6087619 -0.793353 0 -0.3063445 0.3992355 -0.8641552 -0.3992359 0.3063446 0.8641549 0.793353 -0.6087619 0 -0.3992359 0.3063446 -0.8641549 -0.4649198 0.1925759 0.8641552 0.9238797 -0.3826832 0 -0.4649198 0.1925759 -0.8641552 -0.4989206 0.06568402 0.8641551 0.9914449 -0.1305263 0 -0.4989206 0.06568413 -0.864155 -0.4989203 -0.06568396 0.8641552 0.9914449 0.1305262 0 -0.4989203 -0.06568396 -0.8641552 -0.4649201 -0.192576 0.864155 0.9238798 0.3826829 0 -0.4649201 -0.192576 -0.864155 -0.3992354 -0.3063443 0.8641551 0.7933531 0.6087617 0 -0.3992354 -0.3063443 -0.8641551 -0.3063446 -0.3992359 0.8641549 0.6087619 0.793353 0 -0.3063447 -0.3992357 -0.8641549 -0.1925761 -0.4649204 0.8641548 0.3826833 0.9238797 0 -0.1925761 -0.4649204 -0.8641548 -0.06568449 -0.4989202 0.8641552 0.1305266 0.9914448 0 -0.06568449 -0.4989202 -0.8641552 0.06568413 -0.4989209 0.8641549 -0.1305262 0.9914448 0 0.06568413 -0.4989209 -0.8641549 0.1925762 -0.4649201 0.864155 -0.3826834 0.9238796 0 0.1925762 -0.4649201 -0.864155 0.3063442 -0.399236 0.8641551 -0.608761 0.7933537 0 0.3063442 -0.399236 -0.8641551 0.399236 -0.3063448 0.8641548 -0.7933532 0.6087617 0 0.399236 -0.3063448 -0.8641548 0.4649201 -0.192576 0.864155 -0.9238797 0.3826832 0 0.4649201 -0.192576 -0.864155 0.4989206 -0.06568408 0.8641551 -0.9914448 0.1305261 0 0.4989206 -0.06568408 -0.8641551 0.4989206 0.06568402 0.864155 -0.9914449 -0.1305262 0 0.4989206 0.06568402 -0.864155 0.4649197 0.1925762 0.8641551 -0.9238796 -0.3826833 0 0.4649197 0.1925762 -0.8641552 0.3992359 0.3063448 0.8641549 -0.7933531 -0.6087618 0 0.3992359 0.3063448 -0.8641548 0.3063442 0.3992357 0.8641551 -0.6087614 -0.7933533 0 0.3063441 0.3992357 -0.8641551 0.1925762 0.46492 0.864155 -0.3826835 -0.9238795 0 0.1925762 0.46492 -0.864155 0.06568431 0.4989208 0.8641548 -0.1305264 -0.9914449 0 0.06568431 0.4989208 -0.8641548 -0.06568419 0.4989202 0.8641552 0.1305262 -0.9914449 0 -0.06568419 0.4989203 -0.8641552 -0.1925761 0.4649201 0.864155 0.3826833 -0.9238796 0 -0.1925761 0.4649201 -0.864155 -0.3063447 0.3992357 0.8641549 0.6087619 -0.793353 0 -0.3063446 0.3992359 -0.8641549 -0.3992354 0.3063445 0.8641552 0.793353 -0.6087619 0 -0.3992354 0.3063445 -0.8641552 -0.4649202 0.1925763 0.8641549 0.9238797 -0.3826832 0 -0.4649202 0.1925763 -0.8641549 -0.4989202 0.06568413 0.8641552 0.9914449 -0.1305263 0 -0.4989203 0.06568402 -0.8641552 -0.4989206 -0.06568408 0.864155 0.9914449 0.1305262 0 -0.4989206 -0.06568413 -0.864155 -0.4649198 -0.1925757 0.8641552 0.9238798 0.3826829 0 -0.4649198 -0.1925758 -0.8641552 -0.3992357 -0.3063445 0.864155 0.7933531 0.6087617 0 -0.3992357 -0.3063445 -0.864155 -0.3063445 -0.3992355 0.8641551 0.6087619 0.793353 0 -0.3063444 -0.3992356 -0.8641552 -0.1925761 -0.4649201 0.8641549 0.3826833 0.9238797 0 -0.1925761 -0.4649201 -0.8641549 -0.06568437 -0.4989208 0.8641549 0.1305266 0.9914448 0 -0.06568437 -0.4989209 -0.8641549 0.06568431 -0.4989203 0.8641551 -0.1305262 0.9914448 0 0.06568431 -0.4989203 -0.8641551 0.1925761 -0.4649204 0.8641548 -0.3826834 0.9238796 0 0.1925762 -0.4649204 -0.8641548 0.3063442 -0.399236 0.8641549 -0.608761 0.7933537 0 0.3063442 -0.399236 -0.8641549 0.3992358 -0.3063445 0.8641549 -0.7933532 0.6087617 0 0.3992358 -0.3063444 -0.864155 0.4649203 -0.1925762 0.8641548 -0.9238797 0.3826832 0 0.4649203 -0.1925762 -0.8641548 0.4989206 -0.06568408 0.864155 -0.991445 0.1305261 0 0.4989206 -0.06568408 -0.864155</float_array>
          <technique_common>
            <accessor source="#Torus_007-mesh-normals-array" count="144" stride="3">
              <param name="X" type="float"/>
              <param name="Y" type="float"/>
              <param name="Z" type="float"/>
            </accessor>
          </technique_common>
        </source>
        <source id="Torus_007-mesh-map-0">
          <float_array id="Torus_007-mesh-map-0-array" count="864">1 0 1 1 0 1 0 0 1 0 1 1 1 0 1 1 0 1 1 0 1 1 0 1 0 0 1 0 1 1 0 0 1 0 1 1 0 0 1 0 1 1 0 0 1 0 1 1 1 0 1 1 0 1 1 0 1 1 0 1 0 0 1 0 1 1 0 0 1 0 1 1 0 0 1 0 1 1 0 0 1 0 1 1 1 0 1 1 0 1 0 0 1 0 1 1 0 0 1 0 1 1 1 0 1 1 0 1 1 0 1 1 0 1 0 0 1 0 1 1 0 0 1 0 1 1 1 0 1 1 0 1 0 0 1 0 1 1 0 0 1 0 1 1 0 0 1 0 1 1 0 0 1 0 1 1 0 0 1 0 1 1 0 0 1 0 1 1 0 0 1 0 1 1 1 0 1 1 0 1 1 0 1 1 0 1 0 0 1 0 1 1 0 0 1 0 1 1 0 0 1 0 1 1 0 0 1 0 1 1 0 0 1 0 1 1 0 0 1 0 1 1 0 0 1 0 1 1 1 0 1 1 0 1 0 0 1 0 1 1 0 0 1 0 1 1 1 0 1 1 0 1 1 0 1 1 0 1 0 0 1 0 1 1 0 0 1 0 1 1 0 0 1 0 1 1 0 0 1 0 1 1 0 0 1 0 1 1 0 0 1 0 1 1 0 0 1 0 1 1 1 0 1 1 0 1 0 0 1 0 1 1 0 0 1 0 1 1 1 0 1 1 0 1 1 0 1 1 0 1 0 0 1 0 1 1 0 0 1 0 1 1 1 0 1 1 0 1 0 0 1 0 1 1 0 0 1 0 1 1 0 0 1 0 1 1 0 0 1 0 1 1 1 0 1 1 0 1 1 0 1 1 0 1 0 0 1 0 1 1 0 0 1 0 1 1 1 0 1 1 0 1 0 0 1 0 1 1 0 0 1 0 1 1 0 0 1 0 1 1 0 0 1 0 1 1 1 0 1 1 0 1 0 0 1 0 0 1 0 1 0 0 1 1 0 0 1 0 0 1 0 0 1 0 0 1 0 1 0 0 1 1 0 1 0 0 1 1 0 1 0 0 1 1 0 1 0 0 1 1 0 0 1 0 0 1 0 0 1 0 0 1 0 1 0 0 1 1 0 1 0 0 1 1 0 1 0 0 1 1 0 1 0 0 1 1 0 0 1 0 0 1 0 1 0 0 1 1 0 1 0 0 1 1 0 0 1 0 0 1 0 0 1 0 0 1 0 1 0 0 1 1 0 1 0 0 1 1 0 0 1 0 0 1 0 1 0 0 1 1 0 1 0 0 1 1 0 1 0 0 1 1 0 1 0 0 1 1 0 1 0 0 1 1 0 1 0 0 1 1 0 1 0 0 1 1 0 0 1 0 0 1 0 0 1 0 0 1 0 1 0 0 1 1 0 1 0 0 1 1 0 1 0 0 1 1 0 1 0 0 1 1 0 1 0 0 1 1 0 1 0 0 1 1 0 1 0 0 1 1 0 0 1 0 0 1 0 1 0 0 1 1 0 1 0 0 1 1 0 0 1 0 0 1 0 0 1 0 0 1 0 1 0 0 1 1 0 1 0 0 1 1 0 1 0 0 1 1 0 1 0 0 1 1 0 1 0 0 1 1 0 1 0 0 1 1 0 1 0 0 1 1 0 0 1 0 0 1 0 1 0 0 1 1 0 1 0 0 1 1 0 0 1 0 0 1 0 0 1 0 0 1 0 1 0 0 1 1 0 1 0 0 1 1 0 0 1 0 0 1 0 1 0 0 1 1 0 1 0 0 1 1 0 1 0 0 1 1 0 1 0 0 1 1 0 0 1 0 0 1 0 0 1 0 0 1 0 1 0 0 1 1 0 1 0 0 1 1 0 0 1 0 0 1 0 1 0 0 1 1 0 1 0 0 1 1 0 1 0 0 1 1 0 1 0 0 1 1 0 0 1 0 0 1</float_array>
          <technique_common>
            <accessor source="#Torus_007-mesh-map-0-array" count="432" stride="2">
              <param name="S" type="float"/>
              <param name="T" type="float"/>
            </accessor>
          </technique_common>
        </source>
        <vertices id="Torus_007-mesh-vertices">
          <input semantic="POSITION" source="#Torus_007-mesh-positions"/>
        </vertices>
        <polylist count="144">
          <input semantic="VERTEX" source="#Torus_007-mesh-vertices" offset="0"/>
          <input semantic="NORMAL" source="#Torus_007-mesh-normals" offset="1"/>
          <input semantic="TEXCOORD" source="#Torus_007-mesh-map-0" offset="2" set="0"/>
          <vcount>3 3 3 3 3 3 3 3 3 3 3 3 3 3 3 3 3 3 3 3 3 3 3 3 3 3 3 3 3 3 3 3 3 3 3 3 3 3 3 3 3 3 3 3 3 3 3 3 3 3 3 3 3 3 3 3 3 3 3 3 3 3 3 3 3 3 3 3 3 3 3 3 3 3 3 3 3 3 3 3 3 3 3 3 3 3 3 3 3 3 3 3 3 3 3 3 3 3 3 3 3 3 3 3 3 3 3 3 3 3 3 3 3 3 3 3 3 3 3 3 3 3 3 3 3 3 3 3 3 3 3 3 3 3 3 3 3 3 3 3 3 3 3 3 </vcount>
          <p>3 0 0 4 0 1 1 0 2 1 1 3 4 1 4 5 1 5 2 2 6 5 2 7 3 2 8 6 3 9 7 3 10 4 3 11 4 4 12 7 4 13 8 4 14 5 5 15 8 5 16 6 5 17 6 6 18 9 6 19 10 6 20 7 7 21 10 7 22 11 7 23 11 8 24 9 8 25 6 8 26 12 9 27 13 9 28 10 9 29 10 10 30 13 10 31 14 10 32 11 11 33 14 11 34 12 11 35 12 12 36 15 12 37 16 12 38 13 13 39 16 13 40 17 13 41 17 14 42 15 14 43 12 14 44 15 15 45 18 15 46 19 15 47 16 16 48 19 16 49 20 16 50 20 17 51 18 17 52 15 17 53 21 18 54 22 18 55 19 18 56 19 19 57 22 19 58 23 19 59 20 20 60 23 20 61 21 20 62 24 21 63 25 21 64 22 21 65 22 22 66 25 22 67 26 22 68 23 23 69 26 23 70 24 23 71 24 24 72 27 24 73 28 24 74 25 25 75 28 25 76 29 25 77 26 26 78 29 26 79 27 26 80 27 27 81 30 27 82 31 27 83 28 28 84 31 28 85 32 28 86 32 29 87 30 29 88 27 29 89 33 30 90 34 30 91 31 30 92 31 31 93 34 31 94 35 31 95 32 32 96 35 32 97 33 32 98 33 33 99 36 33 100 37 33 101 34 34 102 37 34 103 38 34 104 35 35 105 38 35 106 36 35 107 36 36 108 39 36 109 40 36 110 37 37 111 40 37 112 41 37 113 41 38 114 39 38 115 36 38 116 39 39 117 42 39 118 43 39 119 40 40 120 43 40 121 44 40 122 44 41 123 42 41 124 39 41 125 45 42 126 46 42 127 43 42 128 43 43 129 46 43 130 47 43 131 44 44 132 47 44 133 45 44 134 45 45 135 48 45 136 49 45 137 46 46 138 49 46 139 50 46 140 47 47 141 50 47 142 48 47 143 48 48 144 51 48 145 52 48 146 49 49 147 52 49 148 53 49 149 53 50 150 51 50 151 48 50 152 51 51 153 54 51 154 55 51 155 52 52 156 55 52 157 56 52 158 56 53 159 54 53 160 51 53 161 57 54 162 58 54 163 55 54 164 55 55 165 58 55 166 59 55 167 56 56 168 59 56 169 57 56 170 60 57 171 61 57 172 58 57 173 58 58 174 61 58 175 62 58 176 59 59 177 62 59 178 60 59 179 60 60 180 63 60 181 64 60 182 61 61 183 64 61 184 65 61 185 65 62 186 63 62 187 60 62 188 66 63 189 67 63 190 64 63 191 64 64 192 67 64 193 68 64 194 65 65 195 68 65 196 66 65 197 69 66 198 70 66 199 67 66 200 67 67 201 70 67 202 71 67 203 68 68 204 71 68 205 69 68 206 69 69 207 0 69 208 1 69 209 70 70 210 1 70 211 2 70 212 2 71 213 0 71 214 69 71 215 0 72 216 3 72 217 1 72 218 2 73 219 1 73 220 5 73 221 0 74 222 2 74 223 3 74 224 3 75 225 6 75 226 4 75 227 5 76 228 4 76 229 8 76 230 3 77 231 5 77 232 6 77 233 7 78 234 6 78 235 10 78 236 8 79 237 7 79 238 11 79 239 8 80 240 11 80 241 6 80 242 9 81 243 12 81 244 10 81 245 11 82 246 10 82 247 14 82 248 9 83 249 11 83 250 12 83 251 13 84 252 12 84 253 16 84 254 14 85 255 13 85 256 17 85 257 14 86 258 17 86 259 12 86 260 16 87 261 15 87 262 19 87 263 17 88 264 16 88 265 20 88 266 17 89 267 20 89 268 15 89 269 18 90 270 21 90 271 19 90 272 20 91 273 19 91 274 23 91 275 18 92 276 20 92 277 21 92 278 21 93 279 24 93 280 22 93 281 23 94 282 22 94 283 26 94 284 21 95 285 23 95 286 24 95 287 25 96 288 24 96 289 28 96 290 26 97 291 25 97 292 29 97 293 24 98 294 26 98 295 27 98 296 28 99 297 27 99 298 31 99 299 29 100 300 28 100 301 32 100 302 29 101 303 32 101 304 27 101 305 30 102 306 33 102 307 31 102 308 32 103 309 31 103 310 35 103 311 30 104 312 32 104 313 33 104 314 34 105 315 33 105 316 37 105 317 35 106 318 34 106 319 38 106 320 33 107 321 35 107 322 36 107 323 37 108 324 36 108 325 40 108 326 38 109 327 37 109 328 41 109 329 38 110 330 41 110 331 36 110 332 40 111 333 39 111 334 43 111 335 41 112 336 40 112 337 44 112 338 41 113 339 44 113 340 39 113 341 42 114 342 45 114 343 43 114 344 44 115 345 43 115 346 47 115 347 42 116 348 44 116 349 45 116 350 46 117 351 45 117 352 49 117 353 47 118 354 46 118 355 50 118 356 45 119 357 47 119 358 48 119 359 49 120 360 48 120 361 52 120 362 50 121 363 49 121 364 53 121 365 50 122 366 53 122 367 48 122 368 52 123 369 51 123 370 55 123 371 53 124 372 52 124 373 56 124 374 53 125 375 56 125 376 51 125 377 54 126 378 57 126 379 55 126 380 56 127 381 55 127 382 59 127 383 54 128 384 56 128 385 57 128 386 57 129 387 60 129 388 58 129 389 59 130 390 58 130 391 62 130 392 57 131 393 59 131 394 60 131 395 61 132 396 60 132 397 64 132 398 62 133 399 61 133 400 65 133 401 62 134 402 65 134 403 60 134 404 63 135 405 66 135 406 64 135 407 65 136 408 64 136 409 68 136 410 63 137 411 65 137 412 66 137 413 66 138 414 69 138 415 67 138 416 68 139 417 67 139 418 71 139 419 66 140 420 68 140 421 69 140 422 70 141 423 69 141 424 1 141 425 71 142 426 70 142 427 2 142 428 71 143 429 2 143 430 69 143 431</p>
        </polylist>
      </mesh>
    </geometry>
    <geometry id="Torus_008-mesh" name="Torus.008">
      <mesh>
        <source id="Torus_008-mesh-positions">
          <float_array id="Torus_008-mesh-positions-array" count="216">1.05 0 0 0.975 -0.04330122 0 0.975 0.04330122 0 1.014222 0 0.2717599 0.9417777 -0.04330128 0.2523486 0.9417777 0.04330122 0.2523486 0.9093266 0 0.5250001 0.8443748 -0.04330128 0.4875001 0.8443748 0.04330122 0.4875001 0.742462 0 0.7424622 0.6894291 -0.04330128 0.6894292 0.6894291 0.04330122 0.6894292 0.5249999 0 0.9093266 0.4875 -0.04330128 0.8443748 0.4875 0.04330122 0.8443748 0.2717599 0 1.014222 0.2523486 -0.04330128 0.9417777 0.2523486 0.04330122 0.9417777 0 0 1.05 0 -0.04330128 0.9750001 0 0.04330122 0.9750001 -0.2717598 0 1.014222 -0.2523485 -0.04330128 0.9417778 -0.2523485 0.04330122 0.9417778 -0.5249999 0 0.9093267 -0.4874999 -0.04330128 0.8443749 -0.4874999 0.04330122 0.8443749 -0.7424623 0 0.7424619 -0.6894292 -0.04330128 0.6894289 -0.6894292 0.04330122 0.6894289 -0.9093265 0 0.5250003 -0.8443747 -0.04330128 0.4875003 -0.8443747 0.04330122 0.4875003 -1.014222 0 0.2717599 -0.9417777 -0.04330128 0.2523484 -0.9417777 0.04330122 0.2523484 -1.05 0 0 -0.975 -0.04330122 0 -0.975 0.04330122 0 -1.014222 0 -0.2717599 -0.9417777 -0.04330122 -0.2523484 -0.9417777 0.04330128 -0.2523484 -0.9093268 0 -0.5249999 -0.844375 -0.04330122 -0.4874998 -0.844375 0.04330128 -0.4874998 -0.7424623 0 -0.7424619 -0.6894292 -0.04330122 -0.6894289 -0.6894292 0.04330128 -0.6894289 -0.5249999 0 -0.9093267 -0.4874999 -0.04330122 -0.8443749 -0.4874999 0.04330128 -0.8443749 -0.2717602 0 -1.014222 -0.2523489 -0.04330122 -0.9417776 -0.2523489 0.04330128 -0.9417776 0 0 -1.05 0 -0.04330122 -0.9750001 0 0.04330128 -0.9750001 0.2717595 0 -1.014222 0.2523482 -0.04330122 -0.9417778 0.2523482 0.04330128 -0.9417778 0.5249999 0 -0.9093266 0.4875 -0.04330122 -0.8443748 0.4875 0.04330128 -0.8443748 0.7424618 0 -0.7424625 0.6894288 -0.04330122 -0.6894295 0.6894288 0.04330128 -0.6894295 0.9093266 0 -0.5250001 0.8443748 -0.04330122 -0.4875001 0.8443748 0.04330128 -0.4875001 1.014222 0 -0.2717597 0.9417778 -0.04330122 -0.2523483 0.9417778 0.04330128 -0.2523483</float_array>
          <technique_common>
            <accessor source="#Torus_008-mesh-positions-array" count="72" stride="3">
              <param name="X" type="float"/>
              <param name="Y" type="float"/>
              <param name="Z" type="float"/>
            </accessor>
          </technique_common>
        </source>
        <source id="Torus_008-mesh-normals">
          <float_array id="Torus_008-mesh-normals-array" count="432">0.4989203 -0.8641552 0.06568402 -0.9914449 0 -0.1305262 0.4989203 0.8641552 0.06568413 0.4649203 -0.8641548 0.1925762 -0.9238796 0 -0.3826833 0.4649203 0.8641548 0.1925762 0.3992356 -0.8641552 0.3063442 -0.7933531 0 -0.6087618 0.3992356 0.8641551 0.3063443 0.3063445 -0.8641549 0.3992359 -0.6087614 0 -0.7933534 0.3063445 0.8641549 0.3992359 0.1925762 -0.8641548 0.4649203 -0.3826835 0 -0.9238795 0.1925762 0.8641548 0.4649204 0.06568443 -0.8641552 0.4989203 -0.1305264 0 -0.9914449 0.06568443 0.8641552 0.4989203 -0.06568413 -0.8641551 0.4989205 0.1305262 0 -0.9914449 -0.06568413 0.8641551 0.4989206 -0.1925761 -0.864155 0.4649201 0.3826833 0 -0.9238796 -0.1925761 0.8641549 0.4649201 -0.3063444 -0.8641552 0.3992356 0.6087619 0 -0.793353 -0.3063445 0.8641551 0.3992355 -0.3992359 -0.8641549 0.3063446 0.793353 0 -0.6087619 -0.3992359 0.8641549 0.3063446 -0.4649198 -0.8641552 0.1925759 0.9238797 0 -0.3826832 -0.4649198 0.8641552 0.1925759 -0.4989206 -0.8641551 0.06568402 0.9914449 0 -0.1305263 -0.4989206 0.864155 0.06568419 -0.4989203 -0.8641552 -0.06568402 0.9914449 0 0.1305262 -0.4989203 0.8641552 -0.0656839 -0.4649201 -0.864155 -0.1925761 0.9238798 0 0.3826829 -0.4649201 0.864155 -0.192576 -0.3992354 -0.8641551 -0.3063444 0.7933531 0 0.6087617 -0.3992354 0.8641552 -0.3063443 -0.3063446 -0.8641549 -0.3992359 0.6087619 0 0.793353 -0.3063447 0.8641549 -0.3992357 -0.1925761 -0.8641547 -0.4649204 0.3826833 0 0.9238797 -0.1925761 0.8641548 -0.4649204 -0.06568449 -0.8641552 -0.4989203 0.1305266 0 0.9914448 -0.06568449 0.8641552 -0.4989202 0.06568413 -0.8641548 -0.4989209 -0.1305262 0 0.9914448 0.06568413 0.8641549 -0.4989209 0.1925762 -0.864155 -0.4649201 -0.3826834 0 0.9238796 0.1925761 0.864155 -0.46492 0.3063442 -0.8641551 -0.399236 -0.608761 0 0.7933537 0.3063441 0.8641551 -0.399236 0.399236 -0.8641548 -0.3063448 -0.7933532 0 0.6087617 0.399236 0.8641548 -0.3063447 0.4649201 -0.864155 -0.1925761 -0.9238797 0 0.3826832 0.4649201 0.864155 -0.192576 0.4989206 -0.8641551 -0.06568408 -0.9914448 0 0.1305261 0.4989206 0.8641551 -0.06568402 0.4989206 -0.864155 0.06568396 -0.9914449 0 -0.1305262 0.4989206 0.864155 0.06568402 0.4649197 -0.8641551 0.1925761 -0.9238796 0 -0.3826833 0.4649197 0.8641552 0.1925762 0.3992359 -0.8641549 0.3063447 -0.7933531 0 -0.6087618 0.3992359 0.8641548 0.3063448 0.3063442 -0.8641552 0.3992357 -0.6087614 0 -0.7933533 0.3063442 0.8641551 0.3992357 0.1925762 -0.864155 0.46492 -0.3826835 0 -0.9238795 0.1925762 0.8641549 0.46492 0.06568431 -0.8641549 0.4989208 -0.1305264 0 -0.9914449 0.06568431 0.8641548 0.4989208 -0.06568419 -0.8641552 0.4989202 0.1305262 0 -0.9914449 -0.06568419 0.8641551 0.4989203 -0.1925761 -0.864155 0.46492 0.3826833 0 -0.9238796 -0.1925761 0.864155 0.4649201 -0.3063447 -0.8641549 0.3992357 0.6087619 0 -0.7933531 -0.3063446 0.8641549 0.3992359 -0.3992354 -0.8641552 0.3063444 0.793353 0 -0.6087619 -0.3992354 0.8641552 0.3063445 -0.4649202 -0.8641549 0.1925762 0.9238797 0 -0.3826832 -0.4649202 0.8641549 0.1925763 -0.4989202 -0.8641552 0.06568408 0.9914449 0 -0.1305263 -0.4989203 0.8641552 0.06568402 -0.4989206 -0.864155 -0.06568413 0.9914449 0 0.1305262 -0.4989206 0.864155 -0.06568408 -0.4649198 -0.8641552 -0.1925758 0.9238798 0 0.3826829 -0.4649198 0.8641552 -0.1925757 -0.3992357 -0.864155 -0.3063445 0.7933531 0 0.6087618 -0.3992357 0.864155 -0.3063444 -0.3063445 -0.8641551 -0.3992356 0.6087619 0 0.7933531 -0.3063444 0.8641552 -0.3992356 -0.1925761 -0.8641549 -0.4649201 0.3826833 0 0.9238797 -0.1925761 0.8641549 -0.46492 -0.06568437 -0.8641548 -0.4989209 0.1305266 0 0.9914448 -0.06568437 0.8641549 -0.4989208 0.06568431 -0.8641551 -0.4989203 -0.1305262 0 0.9914448 0.06568431 0.8641552 -0.4989203 0.1925761 -0.8641548 -0.4649204 -0.3826834 0 0.9238796 0.1925762 0.8641548 -0.4649204 0.3063442 -0.8641549 -0.3992361 -0.608761 0 0.7933537 0.3063442 0.8641549 -0.399236 0.3992358 -0.8641549 -0.3063445 -0.7933532 0 0.6087617 0.3992358 0.864155 -0.3063444 0.4649203 -0.8641548 -0.1925762 -0.9238797 0 0.3826832 0.4649203 0.8641548 -0.1925762 0.4989205 -0.864155 -0.06568408 -0.991445 0 0.1305261 0.4989206 0.864155 -0.06568402</float_array>
          <technique_common>
            <accessor source="#Torus_008-mesh-normals-array" count="144" stride="3">
              <param name="X" type="float"/>
              <param name="Y" type="float"/>
              <param name="Z" type="float"/>
            </accessor>
          </technique_common>
        </source>
        <source id="Torus_008-mesh-map-0">
          <float_array id="Torus_008-mesh-map-0-array" count="864">1 0 1 1 0 1 0 0 1 0 1 1 1 0 1 1 0 1 1 0 1 1 0 1 0 0 1 0 1 1 0 0 1 0 1 1 0 0 1 0 1 1 0 0 1 0 1 1 1 0 1 1 0 1 1 0 1 1 0 1 0 0 1 0 1 1 0 0 1 0 1 1 0 0 1 0 1 1 0 0 1 0 1 1 1 0 1 1 0 1 0 0 1 0 1 1 0 0 1 0 1 1 1 0 1 1 0 1 1 0 1 1 0 1 0 0 1 0 1 1 0 0 1 0 1 1 1 0 1 1 0 1 0 0 1 0 1 1 0 0 1 0 1 1 0 0 1 0 1 1 1 0 1 1 0 1 0 0 1 0 1 1 0 0 1 0 1 1 0 0 1 0 1 1 1 0 1 1 0 1 1 0 1 1 0 1 0 0 1 0 1 1 0 0 1 0 1 1 0 0 1 0 1 1 0 0 1 0 1 1 0 0 1 0 1 1 0 0 1 0 1 1 0 0 1 0 1 1 1 0 1 1 0 1 0 0 1 0 1 1 0 0 1 0 1 1 1 0 1 1 0 1 1 0 1 1 0 1 1 0 1 1 0 1 0 0 1 0 1 1 0 0 1 0 1 1 1 0 1 1 0 1 0 0 1 0 1 1 0 0 1 0 1 1 0 0 1 0 1 1 1 0 1 1 0 1 0 0 1 0 1 1 0 0 1 0 1 1 1 0 1 1 0 1 1 0 1 1 0 1 0 0 1 0 1 1 0 0 1 0 1 1 1 0 1 1 0 1 0 0 1 0 1 1 0 0 1 0 1 1 0 0 1 0 1 1 0 0 1 0 1 1 1 0 1 1 0 1 1 0 1 1 0 1 0 0 1 0 1 1 0 0 1 0 1 1 1 0 1 1 0 1 0 0 1 0 1 1 0 0 1 0 1 1 0 0 1 0 1 1 0 0 1 0 1 1 1 0 1 1 0 1 0 0 1 0 0 1 0 1 0 0 1 1 0 0 1 0 0 1 0 0 1 0 0 1 0 1 0 0 1 1 0 1 0 0 1 1 0 1 0 0 1 1 0 1 0 0 1 1 0 0 1 0 0 1 0 0 1 0 0 1 0 1 0 0 1 1 0 1 0 0 1 1 0 1 0 0 1 1 0 1 0 0 1 1 0 0 1 0 0 1 0 1 0 0 1 1 0 1 0 0 1 1 0 0 1 0 0 1 0 0 1 0 0 1 0 1 0 0 1 1 0 1 0 0 1 1 0 0 1 0 0 1 0 1 0 0 1 1 0 1 0 0 1 1 0 1 0 0 1 1 0 0 1 0 0 1 0 1 0 0 1 1 0 1 0 0 1 1 0 1 0 0 1 1 0 0 1 0 0 1 0 0 1 0 0 1 0 1 0 0 1 1 0 1 0 0 1 1 0 1 0 0 1 1 0 1 0 0 1 1 0 1 0 0 1 1 0 1 0 0 1 1 0 1 0 0 1 1 0 0 1 0 0 1 0 1 0 0 1 1 0 1 0 0 1 1 0 0 1 0 0 1 0 0 1 0 0 1 0 0 1 0 0 1 0 1 0 0 1 1 0 1 0 0 1 1 0 0 1 0 0 1 0 1 0 0 1 1 0 1 0 0 1 1 0 1 0 0 1 1 0 0 1 0 0 1 0 1 0 0 1 1 0 1 0 0 1 1 0 0 1 0 0 1 0 0 1 0 0 1 0 1 0 0 1 1 0 1 0 0 1 1 0 0 1 0 0 1 0 1 0 0 1 1 0 1 0 0 1 1 0 1 0 0 1 1 0 1 0 0 1 1 0 0 1 0 0 1 0 0 1 0 0 1 0 1 0 0 1 1 0 1 0 0 1 1 0 0 1 0 0 1 0 1 0 0 1 1 0 1 0 0 1 1 0 1 0 0 1 1 0 1 0 0 1 1 0 0 1 0 0 1</float_array>
          <technique_common>
            <accessor source="#Torus_008-mesh-map-0-array" count="432" stride="2">
              <param name="S" type="float"/>
              <param name="T" type="float"/>
            </accessor>
          </technique_common>
        </source>
        <vertices id="Torus_008-mesh-vertices">
          <input semantic="POSITION" source="#Torus_008-mesh-positions"/>
        </vertices>
        <polylist count="144">
          <input semantic="VERTEX" source="#Torus_008-mesh-vertices" offset="0"/>
          <input semantic="NORMAL" source="#Torus_008-mesh-normals" offset="1"/>
          <input semantic="TEXCOORD" source="#Torus_008-mesh-map-0" offset="2" set="0"/>
          <vcount>3 3 3 3 3 3 3 3 3 3 3 3 3 3 3 3 3 3 3 3 3 3 3 3 3 3 3 3 3 3 3 3 3 3 3 3 3 3 3 3 3 3 3 3 3 3 3 3 3 3 3 3 3 3 3 3 3 3 3 3 3 3 3 3 3 3 3 3 3 3 3 3 3 3 3 3 3 3 3 3 3 3 3 3 3 3 3 3 3 3 3 3 3 3 3 3 3 3 3 3 3 3 3 3 3 3 3 3 3 3 3 3 3 3 3 3 3 3 3 3 3 3 3 3 3 3 3 3 3 3 3 3 3 3 3 3 3 3 3 3 3 3 3 3 </vcount>
          <p>3 0 0 4 0 1 1 0 2 1 1 3 4 1 4 5 1 5 2 2 6 5 2 7 3 2 8 6 3 9 7 3 10 4 3 11 4 4 12 7 4 13 8 4 14 5 5 15 8 5 16 6 5 17 6 6 18 9 6 19 10 6 20 7 7 21 10 7 22 11 7 23 11 8 24 9 8 25 6 8 26 12 9 27 13 9 28 10 9 29 10 10 30 13 10 31 14 10 32 11 11 33 14 11 34 12 11 35 12 12 36 15 12 37 16 12 38 13 13 39 16 13 40 17 13 41 17 14 42 15 14 43 12 14 44 15 15 45 18 15 46 19 15 47 16 16 48 19 16 49 20 16 50 20 17 51 18 17 52 15 17 53 21 18 54 22 18 55 19 18 56 19 19 57 22 19 58 23 19 59 20 20 60 23 20 61 21 20 62 24 21 63 25 21 64 22 21 65 22 22 66 25 22 67 26 22 68 23 23 69 26 23 70 24 23 71 24 24 72 27 24 73 28 24 74 28 25 75 29 25 76 26 25 77 26 26 78 29 26 79 27 26 80 27 27 81 30 27 82 31 27 83 28 28 84 31 28 85 32 28 86 32 29 87 30 29 88 27 29 89 33 30 90 34 30 91 31 30 92 31 31 93 34 31 94 35 31 95 32 32 96 35 32 97 33 32 98 33 33 99 36 33 100 37 33 101 34 34 102 37 34 103 38 34 104 35 35 105 38 35 106 36 35 107 36 36 108 39 36 109 40 36 110 37 37 111 40 37 112 41 37 113 41 38 114 39 38 115 36 38 116 39 39 117 42 39 118 43 39 119 40 40 120 43 40 121 44 40 122 44 41 123 42 41 124 39 41 125 45 42 126 46 42 127 43 42 128 46 43 129 47 43 130 44 43 131 44 44 132 47 44 133 45 44 134 45 45 135 48 45 136 49 45 137 49 46 138 50 46 139 47 46 140 47 47 141 50 47 142 48 47 143 48 48 144 51 48 145 52 48 146 49 49 147 52 49 148 53 49 149 53 50 150 51 50 151 48 50 152 51 51 153 54 51 154 55 51 155 52 52 156 55 52 157 56 52 158 56 53 159 54 53 160 51 53 161 57 54 162 58 54 163 55 54 164 55 55 165 58 55 166 59 55 167 56 56 168 59 56 169 57 56 170 60 57 171 61 57 172 58 57 173 58 58 174 61 58 175 62 58 176 59 59 177 62 59 178 60 59 179 60 60 180 63 60 181 64 60 182 61 61 183 64 61 184 65 61 185 65 62 186 63 62 187 60 62 188 66 63 189 67 63 190 64 63 191 64 64 192 67 64 193 68 64 194 65 65 195 68 65 196 66 65 197 69 66 198 70 66 199 67 66 200 67 67 201 70 67 202 71 67 203 68 68 204 71 68 205 69 68 206 69 69 207 0 69 208 1 69 209 70 70 210 1 70 211 2 70 212 2 71 213 0 71 214 69 71 215 0 72 216 3 72 217 1 72 218 2 73 219 1 73 220 5 73 221 0 74 222 2 74 223 3 74 224 3 75 225 6 75 226 4 75 227 5 76 228 4 76 229 8 76 230 3 77 231 5 77 232 6 77 233 7 78 234 6 78 235 10 78 236 8 79 237 7 79 238 11 79 239 8 80 240 11 80 241 6 80 242 9 81 243 12 81 244 10 81 245 11 82 246 10 82 247 14 82 248 9 83 249 11 83 250 12 83 251 13 84 252 12 84 253 16 84 254 14 85 255 13 85 256 17 85 257 14 86 258 17 86 259 12 86 260 16 87 261 15 87 262 19 87 263 17 88 264 16 88 265 20 88 266 17 89 267 20 89 268 15 89 269 18 90 270 21 90 271 19 90 272 20 91 273 19 91 274 23 91 275 18 92 276 20 92 277 21 92 278 21 93 279 24 93 280 22 93 281 23 94 282 22 94 283 26 94 284 21 95 285 23 95 286 24 95 287 25 96 288 24 96 289 28 96 290 25 97 291 28 97 292 26 97 293 24 98 294 26 98 295 27 98 296 28 99 297 27 99 298 31 99 299 29 100 300 28 100 301 32 100 302 29 101 303 32 101 304 27 101 305 30 102 306 33 102 307 31 102 308 32 103 309 31 103 310 35 103 311 30 104 312 32 104 313 33 104 314 34 105 315 33 105 316 37 105 317 35 106 318 34 106 319 38 106 320 33 107 321 35 107 322 36 107 323 37 108 324 36 108 325 40 108 326 38 109 327 37 109 328 41 109 329 38 110 330 41 110 331 36 110 332 40 111 333 39 111 334 43 111 335 41 112 336 40 112 337 44 112 338 41 113 339 44 113 340 39 113 341 42 114 342 45 114 343 43 114 344 43 115 345 46 115 346 44 115 347 42 116 348 44 116 349 45 116 350 46 117 351 45 117 352 49 117 353 46 118 354 49 118 355 47 118 356 45 119 357 47 119 358 48 119 359 49 120 360 48 120 361 52 120 362 50 121 363 49 121 364 53 121 365 50 122 366 53 122 367 48 122 368 52 123 369 51 123 370 55 123 371 53 124 372 52 124 373 56 124 374 53 125 375 56 125 376 51 125 377 54 126 378 57 126 379 55 126 380 56 127 381 55 127 382 59 127 383 54 128 384 56 128 385 57 128 386 57 129 387 60 129 388 58 129 389 59 130 390 58 130 391 62 130 392 57 131 393 59 131 394 60 131 395 61 132 396 60 132 397 64 132 398 62 133 399 61 133 400 65 133 401 62 134 402 65 134 403 60 134 404 63 135 405 66 135 406 64 135 407 65 136 408 64 136 409 68 136 410 63 137 411 65 137 412 66 137 413 66 138 414 69 138 415 67 138 416 68 139 417 67 139 418 71 139 419 66 140 420 68 140 421 69 140 422 70 141 423 69 141 424 1 141 425 71 142 426 70 142 427 2 142 428 71 143 429 2 143 430 69 143 431</p>
        </polylist>
      </mesh>
    </geometry>
  </library_geometries>
  <library_controllers/>
  <library_visual_scenes>
    <visual_scene id="Scene" name="Scene">
      <node id="X" name="X" type="NODE">
        <matrix sid="transform">1 0 0 0 0 1 0 0 0 0 1 0 0 0 0 1</matrix>
        <instance_geometry url="#Torus_006-mesh"/>
      </node>
      <node id="Y" name="Y" type="NODE">
        <matrix sid="transform">1 0 0 0 0 1 0 0 0 0 1 0 0 0 0 1</matrix>
        <instance_geometry url="#Torus_007-mesh"/>
      </node>
      <node id="Z" name="Z" type="NODE">
        <matrix sid="transform">1 0 0 0 0 1 0 0 0 0 1 0 0 0 0 1</matrix>
        <instance_geometry url="#Torus_008-mesh"/>
      </node>
    </visual_scene>
  </library_visual_scenes>
  <scene>
    <instance_visual_scene url="#Scene"/>
  </scene>
</COLLADA>