<?xml version="1.0" encoding="utf-8" ?>
<COLLADA xmlns="http://www.collada.org/2005/11/COLLADASchema" version="1.4.1">
    <asset>
        <contributor>
            <author>Blender User</author>
            <authoring_tool>modo 902 [Build 100509], Microsoft Windows 10 (10.0.10240)</authoring_tool>
            <comments>
                Plug-in: [Build 100509];
                Use Absolute Path: No;
                Merge Reference Items: No;
                Save Hidden Items: No;
                Save Cameras: No;
                Save Lights: No;
                Save Locators: Yes;
                Save Triangles as Triangles: No;
                Order Vertex Maps Alphabetically: Yes;
                Bake Matrices: No;
                Save Vertex Normals: Yes;
                Save UV Texture Coordinates: Yes;
                Save Vertex Colors: Yes;
                Save Vertex Weights: Yes;
                Save Animation: No;
                Sample Animation: No;
                Sample Animation Start: 0;
                Sample Animation End: 120;
                Save modo Profile: No;
                Save Maya Profile: No;
                Save 3ds Max Profile: No;
                Formatted Arrays: Yes;
            </comments>
            <source_data>file:///D:/Work/studio/Frictional%20Games/Amnesia2/trunk/redist/editor/models/scale_axis.dae</source_data>
        </contributor>
        <created>2016-02-23T09:07:28Z</created>
        <modified>2016-02-23T09:07:28Z</modified>
        <unit name="game" meter="1" />
        <up_axis>Y_UP</up_axis>
    </asset>
    <library_materials>
        <material id="Material-Material.001" name="Material.001">
            <instance_effect url="#Effect-Material.001" />
        </material>
    </library_materials>
    <library_effects>
        <effect id="Effect-Material.001" name="Material.001">
            <profile_COMMON>
                <technique sid="common">
                    <phong>
                        <diffuse>
                            <color sid="diffuse_effect_rgb">0.64 0.64 0.64 1</color>
                        </diffuse>
                        <specular>
                            <color sid="specular_effect_rgb">0.04 0.04 0.04 1</color>
                        </specular>
                        <shininess>
                            <float sid="specular_effect_rgb">256</float>
                        </shininess>
                    </phong>
                </technique>
            </profile_COMMON>
        </effect>
    </library_effects>
    <library_geometries>
        <geometry id="Geometry-Cylinder" name="Cylinder">
            <mesh>
                <source id="Geometry-Cylinder-positions" name="positions">
                    <float_array id="Geometry-Cylinder-positions-array" count="78">
                        0.125 0.75 -0.125
                        0.125 0.75 0.125
                        -0.125 0.75 0.125
                        -0.125 0.75 -0.125
                        0.125 1 -0.125
                        0.125 1 0.125
                        -0.125 1 0.125
                        -0.125 1 -0.125
                        0.0141421 0 -0.0141421
                        0.02 0 0
                        0.0141421 0 0.0141421
                        0 0 0.02
                        -0.0141421 0 0.0141421
                        -0.02 0 0
                        -0.0141421 0 -0.0141421
                        0 0 -0.02
                        0.0141421 0.75 -0.0141421
                        0.02 0.75 0
                        0.0141421 0.75 0.0141421
                        0 0.75 0.02
                        -0.0141421 0.75 0.0141421
                        -0.02 0.75 0
                        -0.0141421 0.75 -0.0141421
                        0 0.75 -0.02
                        0 0 0
                        0 0.75 0
                    </float_array>
                    <technique_common>
                        <accessor count="26" source="#Geometry-Cylinder-positions-array" stride="3">
                            <param name="X" type="float" />
                            <param name="Y" type="float" />
                            <param name="Z" type="float" />
                        </accessor>
                    </technique_common>
                </source>
                <source id="Geometry-Cylinder-normals" name="normals">
                    <float_array id="Geometry-Cylinder-normals-array" count="66">
                        4.02332e-007 4.02331e-007 -1
                        3.87431e-007 4.17232e-007 -1
                        4.17233e-007 3.8743e-007 -1
                        -1 -4.02331e-007 -4.02332e-007
                        -1 -3.8743e-007 -3.87431e-007
                        -1 -4.17232e-007 -4.17233e-007
                        0 -3.8743e-007 1
                        -1.93715e-007 -1.93715e-007 1
                        -3.87431e-007 -1.42109e-013 1
                        1 -3.8743e-007 0
                        1 1.4901e-008 4.02332e-007
                        1 4.17232e-007 8.04663e-007
                        0 1 0
                        0 -1 0
                        0.382686 0 -0.923878
                        -0.382686 0 -0.923878
                        -0.923878 0 -0.382686
                        -0.923878 0 0.382686
                        -0.382686 0 0.923878
                        0.382686 0 0.923878
                        0.923878 0 0.382686
                        0.923878 0 -0.382686
                    </float_array>
                    <technique_common>
                        <accessor count="22" source="#Geometry-Cylinder-normals-array" stride="3">
                            <param name="X" type="float" />
                            <param name="Y" type="float" />
                            <param name="Z" type="float" />
                        </accessor>
                    </technique_common>
                </source>
                <source id="Geometry-Cylinder-Cylinder-mesh-map-0" name="Cylinder-mesh-map-0">
                    <float_array id="Geometry-Cylinder-Cylinder-mesh-map-0-array" count="132">
                        0.0422009 0.611645
                        0.042201 0.349893
                        0.303953 0.349893
                        0.303953 0.611645
                        0.0422009 0.619124
                        0.303953 0.619124
                        0.303953 0.880876
                        0.0422009 0.880876
                        0.573184 0.349893
                        0.573184 0.611645
                        0.311432 0.349893
                        0.311432 0.611645
                        0.303953 0.342415
                        0.0422009 0.342414
                        0.303953 0.0806625
                        0.0422009 0.0806624
                        0.573184 0.342414
                        0.311432 0.342415
                        0.573184 0.0806624
                        0.311432 0.0806625
                        0.311432 0.880876
                        0.311432 0.619124
                        0.573184 0.619124
                        0.573184 0.880876
                        0.884615 0.0384615
                        0.859891 0.0631855
                        0.84965 0.0384615
                        0.961538 0.0384615
                        0.996503 0.0384615
                        0.986262 0.0631855
                        0.859891 0.0137376
                        0.986262 0.0137376
                        0.884615 0.0034965
                        0.961538 0.0034965
                        0.909339 0.0137376
                        0.936814 0.0137376
                        0.91958 0.0384615
                        0.926573 0.0384615
                        0.909339 0.0631855
                        0.936814 0.0631855
                        0.884615 0.0734266
                        0.961538 0.0734266
                        0.810897 0.765423
                        0.810897 0.00380807
                        0.826923 0.00380807
                        0.826923 0.765423
                        0.842949 0.00380807
                        0.842949 0.765423
                        0.0422696 0.0576923
                        0.803884 0.0576923
                        0.803884 0.073718
                        0.0422696 0.073718
                        0.0422696 0.0416667
                        0.803884 0.0416667
                        0.0192308 0.00380807
                        0.0192308 0.765423
                        0.00320513 0.765423
                        0.00320513 0.00380807
                        0.0352564 0.00380807
                        0.0352564 0.765423
                        0.803884 0.0192308
                        0.0422696 0.0192308
                        0.0422696 0.00320513
                        0.803884 0.00320513
                        0.803884 0.0352564
                        0.0422696 0.0352564
                    </float_array>
                    <technique_common>
                        <accessor count="66" source="#Geometry-Cylinder-Cylinder-mesh-map-0-array" stride="2">
                            <param name="S" type="float" />
                            <param name="T" type="float" />
                        </accessor>
                    </technique_common>
                </source>
                <vertices id="Geometry-Cylinder-vertices">
                    <input semantic="POSITION" source="#Geometry-Cylinder-positions" />
                </vertices>
                <polylist count="44" material="Material-Material.001">
                    <input semantic="VERTEX" source="#Geometry-Cylinder-vertices" offset="0" />
                    <input semantic="NORMAL" source="#Geometry-Cylinder-normals" offset="1" />
                    <input semantic="TEXCOORD" source="#Geometry-Cylinder-Cylinder-mesh-map-0" offset="2" set="0" />
                    <vcount>3 3 3 3 3 3 3 3 3 3 3 3 3 3 3 3 3 3 3 3 3 3 3 3 3 3 3 3 3 3 3 3 3 3 3 3 3 3 3 3 3 3 3 3</vcount>
                    <p>4 0 0 0 1 1 3 0 2 4 0 0 3 0 2 7 2 3 2 3 4 6 4 5 7 3 6 2 3 4 7 3 6 3 5 7 1 6 8 5 7 9 2 7 10 5 7 9 6 8 11 2 7 10 0 9 12 4 10 13 1 10 14 4 10 13 5 11 15 1 10 14 4 12 16 7 12 17 5 12 18 7 12 17 6 12 19 5 12 18 0 13 20 1 13 21 2 13 22 0 13 20 2 13 22 3 13 23 24 13 24 8 13 25 9 13 26 25 12 27 17 12 28 16 12 29 24 13 24 9 13 26 10 13 30 25 12 27 18 12 31 17 12 28 24 13 24 10 13 30 11 13 32 25 12 27 19 12 33 18 12 31 24 13 24 11 13 32 12 13 34 25 12 27 20 12 35 19 12 33 24 13 24 12 13 34 13 13 36 25 12 27 21 12 37 20 12 35 24 13 24 13 13 36 14 13 38 25 12 27 22 12 39 21 12 37 24 13 24 14 13 38 15 13 40 25 12 27 23 12 41 22 12 39 15 13 40 8 13 25 24 13 24 25 12 27 16 12 29 23 12 41 16 14 42 8 14 43 15 14 44 16 14 42 15 14 44 23 14 45 14 15 46 22 15 47 23 15 45 14 15 46 23 15 45 15 15 44 13 16 48 21 16 49 22 16 50 13 16 48 22 16 50 14 16 51 12 17 52 20 17 53 21 17 49 12 17 52 21 17 49 13 17 48 11 18 54 19 18 55 20 18 56 11 18 54 20 18 56 12 18 57 10 19 58 18 19 59 19 19 55 10 19 58 19 19 55 11 19 54 9 20 60 17 20 61 18 20 62 9 20 60 18 20 62 10 20 63 8 21 64 16 21 65 17 21 61 8 21 64 17 21 61 9 21 60</p>
                </polylist>
            </mesh>
        </geometry>
    </library_geometries>
    <library_visual_scenes>
        <visual_scene id="DefaultScene">
            <node id="Geometry-CylinderNode" name="Cylinder" type="NODE">
                <translate sid="translation001">0 0 0</translate>
                <rotate sid="rotation002Z">0 0 1 0</rotate>
                <rotate sid="rotation002Y">0 1 0 0</rotate>
                <rotate sid="rotation002X">1 0 0 0</rotate>
                <scale sid="scale003">1 1 1</scale>
                <instance_geometry url="#Geometry-Cylinder">
                    <bind_material>
                        <technique_common>
                            <instance_material symbol="Material-Material.001" target="#Material-Material.001" />
                        </technique_common>
                    </bind_material>
                </instance_geometry>
            </node>
            <node id="Camera-camera008Node" name="Camera" type="NODE">
                <translate sid="translation009">0 0.75 4</translate>
                <rotate sid="rotation010Y">0 1 0 0</rotate>
                <rotate sid="rotation010X">1 0 0 -5</rotate>
                <rotate sid="rotation010Z">0 0 1 0</rotate>
                <instance_camera url="#Camera-camera008" />
            </node>
            <node id="Light-sunLight016Node" name="Directional_Light" type="NODE">
                <translate sid="translation017">-2 2 2</translate>
                <rotate sid="rotation018Y">0 1 0 -45</rotate>
                <rotate sid="rotation018X">1 0 0 -30</rotate>
                <rotate sid="rotation018Z">0 0 1 0</rotate>
                <instance_light url="#Light-sunLight016" />
            </node>
        </visual_scene>
    </library_visual_scenes>
    <scene>
        <instance_visual_scene url="#DefaultScene" />
    </scene>
</COLLADA>
