<?xml version="1.0" encoding="utf-8"?>
<COLLADA xmlns="http://www.collada.org/2005/11/COLLADASchema" version="1.4.1">
  <asset>
    <contributor>
      <author>Blender User</author>
      <authoring_tool>Blender 2.61.0 r42615</authoring_tool>
    </contributor>
    <created>2012-01-17T14:39:56</created>
    <modified>2012-01-17T14:39:56</modified>
    <unit name="meter" meter="1"/>
    <up_axis>Z_UP</up_axis>
  </asset>
  <library_images>
    <image id="editor_default_diffus" name="editor_default_diffus">
      <init_from>/I:/HPL3/trunk/redist/editor/textures/editor_default_diffuse.jpg</init_from>
    </image>
  </library_images>
  <library_effects>
    <effect id="Material_004-effect">
      <profile_COMMON>
        <newparam sid="editor_default_diffus-surface">
          <surface type="2D">
            <init_from>editor_default_diffus</init_from>
          </surface>
        </newparam>
        <newparam sid="editor_default_diffus-sampler">
          <sampler2D>
            <source>editor_default_diffus-surface</source>
          </sampler2D>
        </newparam>
        <technique sid="common">
          <phong>
            <emission>
              <color sid="emission">0 0 0 1</color>
            </emission>
            <ambient>
              <color sid="ambient">0 0 0 1</color>
            </ambient>
            <diffuse>
              <texture texture="editor_default_diffus-sampler" texcoord="UVMap"/>
            </diffuse>
            <specular>
              <color sid="specular">0.5 0.5 0.5 1</color>
            </specular>
            <shininess>
              <float sid="shininess">50</float>
            </shininess>
            <index_of_refraction>
              <float sid="index_of_refraction">1</float>
            </index_of_refraction>
          </phong>
        </technique>
        <extra>
          <technique profile="GOOGLEEARTH">
            <double_sided>1</double_sided>
          </technique>
        </extra>
      </profile_COMMON>
      <extra><technique profile="MAX3D"><double_sided>1</double_sided></technique></extra>
    </effect>
  </library_effects>
  <library_materials>
    <material id="Material_004-material" name="Material.004">
      <instance_effect url="#Material_004-effect"/>
    </material>
  </library_materials>
  <library_geometries>
    <geometry id="Cylinder_004-mesh">
      <mesh>
        <source id="Cylinder_004-mesh-positions">
          <float_array id="Cylinder_004-mesh-positions-array" count="234">0 0.1 0.75 0.05877852 0.08090168 0.75 0.09510564 0.03090167 0.75 0.09510564 -0.03090167 0.75 0.05877852 -0.08090168 0.75 0 -0.1 0.75 -0.05877852 -0.08090168 0.75 -0.09510564 -0.03090167 0.75 -0.09510564 0.03090167 0.75 -0.05877846 0.08090168 0.75 0 0 1 0 0 0.75 0 0.02499997 0.3000001 0 0.0202254 0.2853055 0 0.007725417 0.2762237 0 -0.007725417 0.2762237 0 -0.0202254 0.2853055 0 -0.02499997 0.3000001 0 -0.0202254 0.3146947 0 -0.007725417 0.3237765 0 0.007725417 0.3237765 0 0.0202254 0.3146947 0.3 0.02499997 0.2999999 0.3 0.0202254 0.2853053 0.3 0.007725358 0.2762235 0.3 -0.007725417 0.2762235 0.3 -0.0202254 0.2853053 0.3 -0.02499997 0.3 0.3 -0.02022534 0.3146946 0.3 -0.007725358 0.3237764 0.3 0.007725477 0.3237763 0.3 0.02022546 0.3146945 0 0 0.3000001 0.3 0 0.2999999 0 0.3 0.3250001 0.01469463 0.3 0.3202255 0.02377641 0.3 0.3077256 0.02377641 0.3 0.2922747 0.01469463 0.3 0.2797747 0 0.3 0.2750001 -0.01469463 0.3 0.2797747 -0.02377641 0.3 0.2922747 -0.02377641 0.3 0.3077256 -0.01469457 0.3 0.3202255 0 0 0.3249999 0.01469463 0 0.3202253 0.02377641 0 0.3077253 0.02377635 0 0.2922745 0.01469457 0 0.2797744 0 0 0.2749999 -0.01469463 0 0.2797745 -0.02377641 0 0.2922745 -0.02377635 0 0.3077254 -0.01469457 0 0.3202254 0 0.3 0.3000001 0 0 0.2999999 0 0.02499997 0 0.01469463 0.0202254 0 0.02377641 0.007725417 0 0.02377641 -0.007725417 0 0.01469463 -0.0202254 0 0 -0.02499997 0 -0.01469463 -0.0202254 0 -0.02377641 -0.007725417 0 -0.02377641 0.007725417 0 -0.01469457 0.0202254 0 0 0.02499997 0.75 0.01469463 0.0202254 0.75 0.02377641 0.007725358 0.75 0.02377635 -0.007725417 0.75 0.01469457 -0.0202254 0.75 0 -0.02499997 0.75 -0.01469463 -0.02022534 0.75 -0.02377641 -0.007725358 0.75 -0.02377635 0.007725477 0.75 -0.01469457 0.02022546 0.75 0 0 0 0 0 0.75</float_array>
          <technique_common>
            <accessor source="#Cylinder_004-mesh-positions-array" count="78" stride="3">
              <param name="X" type="float"/>
              <param name="Y" type="float"/>
              <param name="Z" type="float"/>
            </accessor>
          </technique_common>
        </source>
        <source id="Cylinder_004-mesh-normals">
          <float_array id="Cylinder_004-mesh-normals-array" count="420">0.2888234 0.8889073 0.3555629 0.7561497 0.5493749 0.3555629 0.9346525 0 0.3555629 0.7561497 -0.5493749 0.3555629 0.2888234 -0.8889073 0.3555629 -0.2888235 -0.8889072 0.3555629 -0.7561497 -0.5493748 0.3555629 -0.9346523 0 0.3555629 -0.7561495 0.549375 0.3555629 -0.2888233 0.8889073 0.3555629 0 0 -1 0 0 -1 0 0 -1 0 0 -1 0 0 -1 0 0 -1 0 0 -1 0 0 -1 0 0 -1 0 0 -1 -1 0 6.39758e-7 1 0 0 -1 0 6.39758e-7 1 -1.19209e-6 -1.64077e-6 -1 0 6.39758e-7 1 0 -1.25344e-6 -1 0 6.39758e-7 1 1.19209e-6 -1.64078e-6 -1 0 6.39758e-7 1 0 0 -1 0 6.39758e-7 1 0 0 -1 0 6.39758e-7 1 -1.19209e-6 -1.64077e-6 -1 0 6.39758e-7 1 0 -1.25344e-6 -1 0 6.39758e-7 1 1.19209e-6 -1.64078e-6 -1 0 6.39757e-7 1 0 0 -1.64078e-6 1 1.19209e-6 0 -1 -6.39758e-7 0 1 0 0 -1 -6.39758e-7 0 1 0 0 -1 -6.39759e-7 0 1 0 0 -1 -6.39757e-7 1.64078e-6 1 1.19209e-6 0 -1 -6.39758e-7 -1.64078e-6 1 1.19209e-6 0 -1 -6.39758e-7 0 1 0 0 -1 -6.39758e-7 0 1 0 0 -1 -6.39757e-7 0 1 0 0 -1 -6.39758e-7 1.64078e-6 1 1.19209e-6 0 -1 -6.39758e-7 0 0 -1 0 0 1 0 0 -1 0 0 1 0 0 -1 0 0 1 0 0 -1 0 0 1 0 0 -1 0 0 1 0 0 -1 0 0 1 0 0 -1 0 0 1 0 0 -1 0 0 1 0 0 -1 0 0 1 0 0 -1 0 0 1 -0.3090168 0.9510566 0 -0.3090153 0.9510571 0 -0.8090153 0.5877876 0 -0.8090169 0.5877855 0 -1 2.53161e-6 0 -1 0 0 -0.8090183 -0.5877834 0 -0.8090171 -0.5877853 0 -0.309019 -0.9510559 0 -0.309017 -0.9510565 0 0.3090153 -0.951057 0 0.3090169 -0.9510565 0 0.8090161 -0.5877866 0 0.809017 -0.5877853 0 1 -1.32608e-6 0 1 -1.20553e-7 0 0.8090175 0.5877845 0 0.809017 0.5877853 0 0.3090178 0.9510563 0 0.309017 0.9510565 0 -0.3090168 -5.83656e-7 0.9510565 -0.3090158 -5.26116e-7 0.951057 -0.8090155 -3.42187e-7 0.5877873 -0.8090165 -4.32601e-7 0.5877859 -1 0 2.53161e-6 -1 0 0 -0.8090181 4.04974e-7 -0.5877836 -0.8090175 3.47209e-7 -0.5877845 -0.3090186 6.14354e-7 -0.9510561 -0.3090167 5.15564e-7 -0.9510566 0.3090147 6.26818e-7 -0.9510572 0.3090167 5.19394e-7 -0.9510566 0.8090167 3.83624e-7 -0.5877857 0.8090174 3.18323e-7 -0.5877847 1 0 -1.32608e-6 1 0 -1.20553e-7 0.8090176 -3.61019e-7 0.5877844 0.8090167 -4.42015e-7 0.5877856 0.3090184 -5.50092e-7 0.9510561 0.3090167 -6.43126e-7 0.9510566 2.14886e-7 0.9510566 0.3090166 1.27484e-7 0.9510572 0.309015 4.43059e-7 0.5877871 0.8090157 5.6996e-7 0.5877851 0.8090171 4.96705e-7 3.85769e-6 1 6.95387e-7 0 1 4.63884e-7 -0.5877844 0.8090175 5.2045e-7 -0.5877854 0.809017 1.53491e-7 -0.951056 0.3090189 2.53874e-7 -0.9510565 0.3090171 -2.24349e-7 -0.9510569 -0.3090156 -1.5349e-7 -0.9510565 -0.309017 -5.46077e-7 -0.5877868 -0.8090159 -4.45636e-7 -0.5877853 -0.8090171 -6.95388e-7 -1.92885e-6 -1 -5.96046e-7 0 -1 -5.33385e-7 0.5877848 -0.8090173 -5.09663e-7 0.5877852 -0.8090171 -2.14887e-7 0.9510563 -0.3090178 -1.67647e-7 0.9510565 -0.309017</float_array>
          <technique_common>
            <accessor source="#Cylinder_004-mesh-normals-array" count="140" stride="3">
              <param name="X" type="float"/>
              <param name="Y" type="float"/>
              <param name="Z" type="float"/>
            </accessor>
          </technique_common>
        </source>
        <source id="Cylinder_004-mesh-map-0">
          <float_array id="Cylinder_004-mesh-map-0-array" count="840">0.1528111 0.667046 0.07661581 0.6856065 4.92984e-4 0.3560876 0.4108224 0.3522459 0.3474904 0.01924216 0.4113714 0 0.4108224 0.3522459 0.2689638 0.04438453 0.3474904 0.01924216 0.4108224 0.3522459 0.2057862 0.06582379 0.2689638 0.04438453 0.4118645 0 0.4879873 0.3295189 0.4113714 0.3462595 0.4118645 0 0.5641826 0.3109584 0.4879873 0.3295189 0.2053746 0.3560876 0.1408466 0.01589 0.2057862 0 0.2053746 0.3560876 0.06224328 0.04079145 0.1408466 0.01589 0.2053746 0.3560876 0 0.06519269 0.06224328 0.04079145 4.92984e-4 0.3560876 0.07661581 0.6856065 0 0.702347 0.3326942 0.4856584 0.2542102 0.5935431 0.2057862 0.5268072 0.3326942 0.4856584 0.2057862 0.5268072 0.2058368 0.4443538 0.3326942 0.4856584 0.2058368 0.4443538 0.2543426 0.3776773 0.3326942 0.4856584 0.2543426 0.3776773 0.3327761 0.3522459 0.3326942 0.4856584 0.3327761 0.3522459 0.4111783 0.3777736 0.3326942 0.4856584 0.4111783 0.3777736 0.4596022 0.4445095 0.3326942 0.4856584 0.4596022 0.4445095 0.4595516 0.5269629 0.3326942 0.4856584 0.4595516 0.5269629 0.4110459 0.5936394 0.3326942 0.4856584 0.4110459 0.5936394 0.3326123 0.6190708 0.3326123 0.6190708 0.2542102 0.5935431 0.3326942 0.4856584 0.4279657 0.652375 0.4084274 0.6253437 0.42798 0.6190708 0.5959052 0.2462035 0.5959301 0.2128537 0.6155261 0.2192323 0.4279657 0.652375 0.42798 0.6190708 0.447527 0.6255189 0.5959052 0.2462035 0.5763245 0.2192136 0.5959301 0.2128537 0.4279657 0.652375 0.447527 0.6255189 0.4596022 0.6422252 0.5959052 0.2462035 0.5641981 0.2358827 0.5763245 0.2192136 0.4279657 0.652375 0.4596022 0.6422252 0.4595934 0.6628082 0.5959052 0.2462035 0.5641826 0.2564941 0.5641981 0.2358827 0.4279657 0.652375 0.4595934 0.6628082 0.4475038 0.6794062 0.5959052 0.2462035 0.5762842 0.2731748 0.5641826 0.2564941 0.4279657 0.652375 0.4475038 0.6794062 0.4279513 0.6856791 0.5959052 0.2462035 0.5958802 0.2795534 0.5762842 0.2731748 0.4279657 0.652375 0.4279513 0.6856791 0.4084043 0.679231 0.5959052 0.2462035 0.6154859 0.2731934 0.5958802 0.2795534 0.4279657 0.652375 0.4084043 0.679231 0.3963291 0.6625248 0.5959052 0.2462035 0.6276123 0.2565243 0.6154859 0.2731934 0.4279657 0.652375 0.3963291 0.6625248 0.3963379 0.6419416 0.5959052 0.2462035 0.6276276 0.2359129 0.6276123 0.2565243 0.3963379 0.6419416 0.4084274 0.6253437 0.4279657 0.652375 0.5959052 0.2462035 0.6155261 0.2192323 0.6276276 0.2359129 0.595899 0.1795153 0.5762912 0.1525622 0.5958892 0.1461768 0.595899 0.1000446 0.5641826 0.08977204 0.5762912 0.07309144 0.595899 0.1795153 0.5958892 0.1461768 0.6154909 0.1525256 0.595899 0.1000446 0.5641888 0.1103764 0.5641826 0.08977204 0.595899 0.1795153 0.6154909 0.1525256 0.6276093 0.1691835 0.595899 0.1000446 0.5763071 0.1270342 0.5641888 0.1103764 0.595899 0.1795153 0.6276093 0.1691835 0.6276153 0.1897878 0.595899 0.1000446 0.5959088 0.133383 0.5763071 0.1270342 0.595899 0.1795153 0.6276153 0.1897878 0.6155068 0.2064683 0.595899 0.1000446 0.6155069 0.1269976 0.5959088 0.133383 0.595899 0.1795153 0.6155068 0.2064683 0.5959088 0.2128537 0.595899 0.1000446 0.6276153 0.1103171 0.6155069 0.1269976 0.595899 0.1795153 0.5959088 0.2128537 0.576307 0.206505 0.595899 0.1000446 0.6276093 0.08971267 0.6276153 0.1103171 0.595899 0.1795153 0.576307 0.206505 0.5641887 0.1898469 0.595899 0.1000446 0.6154909 0.0730549 0.6276093 0.08971267 0.595899 0.1795153 0.5641887 0.1898469 0.5641826 0.1692427 0.595899 0.1000446 0.5958891 0.06670618 0.6154909 0.0730549 0.5641826 0.1692427 0.5762912 0.1525622 0.595899 0.1795153 0.595899 0.1000446 0.5762912 0.07309144 0.5958891 0.06670618 0.5959097 0.3129065 0.5762887 0.3398776 0.5641826 0.3231937 0.5959097 0.03335309 0.5959301 0 0.6155306 0.006381869 0.5959097 0.3129065 0.5641826 0.3231937 0.5641953 0.3025803 0.5959097 0.03335309 0.5763217 0.006357848 0.5959301 0 0.5959097 0.3129065 0.5641953 0.3025803 0.5763217 0.2859112 0.5959097 0.03335309 0.5641953 0.023027 0.5763217 0.006357848 0.5959097 0.3129065 0.5763217 0.2859112 0.5959301 0.2795534 0.5959097 0.03335309 0.5641826 0.04364031 0.5641953 0.023027 0.5959097 0.3129065 0.5959301 0.2795534 0.6155307 0.2859352 0.5959097 0.03335309 0.5762887 0.06032431 0.5641826 0.04364031 0.5959097 0.3129065 0.6155307 0.2859352 0.6276367 0.3026192 0.5959097 0.03335309 0.5958893 0.06670618 0.5762887 0.06032431 0.5959097 0.3129065 0.6276367 0.3026192 0.627624 0.3232325 0.5959097 0.03335309 0.6154976 0.06034827 0.5958893 0.06670618 0.5959097 0.3129065 0.627624 0.3232325 0.6154975 0.3399017 0.5959097 0.03335309 0.627624 0.04367911 0.6154976 0.06034827 0.5959097 0.3129065 0.6154975 0.3399017 0.5958892 0.3462595 0.5959097 0.03335309 0.6276366 0.02306574 0.627624 0.04367911 0.5958892 0.3462595 0.5762887 0.3398776 0.5959097 0.3129065 0.5959097 0.03335309 0.6155306 0.006381869 0.6276366 0.02306574 0.6355413 0.3525398 0.6386088 1.352456 0.6190037 1.352282 0.6355413 0.3525398 0.6190037 1.352282 0.6159362 0.3523663 0.5333102 0.3523092 0.5363667 1.348644 0.5196937 1.349811 0.5333102 0.3523092 0.5196937 1.349811 0.5166372 0.3534764 0.5539234 0.3522459 0.5569799 1.348581 0.5363667 1.348644 0.5539234 0.3522459 0.5363667 1.348644 0.5333102 0.3523092 0.5706033 0.3533108 0.5736599 1.349646 0.5569799 1.348581 0.5706033 0.3533108 0.5569799 1.348581 0.5539234 0.3522459 0.5963326 1.352456 0.593265 0.3525398 0.6128687 0.3522459 0.5963326 1.352456 0.6128687 0.3522459 0.6159362 1.352162 0.5767275 1.352282 0.5736599 0.3523663 0.593265 0.3525398 0.5767275 1.352282 0.593265 0.3525398 0.5963326 1.352456 0.4762778 0.3523092 0.4793465 1.352614 0.462671 1.352954 0.4762778 0.3523092 0.462671 1.352954 0.4596022 0.3526487 0.4968911 0.3522459 0.4999598 1.352551 0.4793465 1.352614 0.4968911 0.3522459 0.4793465 1.352614 0.4762778 0.3523092 0.5135685 0.3524832 0.5166372 1.352788 0.4999598 1.352551 0.5135685 0.3524832 0.4999598 1.352551 0.4968911 0.3522459 0.6386088 1.352456 0.6355413 0.3525398 0.6551449 0.3522459 0.6386088 1.352456 0.6551449 0.3522459 0.6582125 1.352162 0.8983478 0.3523061 0.8995757 0.7525414 0.8799713 0.7526016 0.8983478 0.3523061 0.8799713 0.7526016 0.8787435 0.3523663 0.8597943 0.7525918 0.8610219 0.3523564 0.8787435 0.3524108 0.8597943 0.7525918 0.8787435 0.3524108 0.8775158 0.7526462 0.8392686 0.7525288 0.8404963 0.3522935 0.8610219 0.3523564 0.8392686 0.7525288 0.8610219 0.3523564 0.8597943 0.7525918 0.823779 0.7524813 0.8250067 0.3522459 0.8404963 0.3522935 0.823779 0.7524813 0.8404963 0.3522935 0.8392686 0.7525288 0.1724155 0.7563831 0.1736434 0.3561477 0.1932477 0.3562079 0.1724155 0.7563831 0.1932477 0.3562079 0.1920199 0.7564432 0.1528111 0.756323 0.154039 0.3560876 0.1736434 0.3561477 0.1528111 0.756323 0.1736434 0.3561477 0.1724155 0.7563831 0.8073956 0.7525315 0.806168 0.3522962 0.8225514 0.3522459 0.8073956 0.7525315 0.8225514 0.3522459 0.823779 0.7524813 0.7867882 0.7525948 0.7855606 0.3523594 0.806168 0.3522962 0.7867882 0.7525948 0.806168 0.3522962 0.8073956 0.7525315 0.7698281 0.7526468 0.7686005 0.3524115 0.7855606 0.3523594 0.7698281 0.7526468 0.7855606 0.3523594 0.7867882 0.7525948 0.8995757 0.7525414 0.8983478 0.3523061 0.9179521 0.3522459 0.8995757 0.7525414 0.9179521 0.3522459 0.91918 0.7524814 0.9794148 0.3523053 0.9806424 0.7525408 0.9608177 0.7526016 0.9794148 0.3523053 0.9608177 0.7526016 0.9595901 0.3523662 0.69673 0.7525325 0.6955022 0.3522971 0.7121787 0.3522459 0.69673 0.7525325 0.7121787 0.3522459 0.7134065 0.7524814 0.6761168 0.7525957 0.674889 0.3523604 0.6955022 0.3522971 0.6761168 0.7525957 0.6955022 0.3522971 0.69673 0.7525325 0.6594403 0.7526469 0.6582125 0.3524115 0.674889 0.3523604 0.6594403 0.7526469 0.674889 0.3523604 0.6761168 0.7525957 0.9402324 0.3523068 0.9390047 0.7525421 0.91918 0.7524814 0.9402324 0.3523068 0.91918 0.7524814 0.9204077 0.3522459 0.9595901 0.3523662 0.9583624 0.7526016 0.9390047 0.7525421 0.9595901 0.3523662 0.9390047 0.7525421 0.9402324 0.3523068 0.7506962 0.7525957 0.751924 0.3523604 0.7686005 0.3524115 0.7506962 0.7525957 0.7686005 0.3524115 0.7673727 0.7526469 0.7300829 0.7525325 0.7313107 0.3522971 0.751924 0.3523604 0.7300829 0.7525325 0.751924 0.3523604 0.7506962 0.7525957 0.7134065 0.7524814 0.7146342 0.3522459 0.7313107 0.3522971 0.7134065 0.7524814 0.7313107 0.3522971 0.7300829 0.7525325 0.9806424 0.7525408 0.9794148 0.3523053 0.9987725 0.3522459 0.9806424 0.7525408 0.9987725 0.3522459 1 0.7524814</float_array>
          <technique_common>
            <accessor source="#Cylinder_004-mesh-map-0-array" count="420" stride="2">
              <param name="S" type="float"/>
              <param name="T" type="float"/>
            </accessor>
          </technique_common>
        </source>
        <vertices id="Cylinder_004-mesh-vertices">
          <input semantic="POSITION" source="#Cylinder_004-mesh-positions"/>
        </vertices>
        <polylist material="Material_0041" count="140">
          <input semantic="VERTEX" source="#Cylinder_004-mesh-vertices" offset="0"/>
          <input semantic="NORMAL" source="#Cylinder_004-mesh-normals" offset="1"/>
          <input semantic="TEXCOORD" source="#Cylinder_004-mesh-map-0" offset="2" set="0"/>
          <vcount>3 3 3 3 3 3 3 3 3 3 3 3 3 3 3 3 3 3 3 3 3 3 3 3 3 3 3 3 3 3 3 3 3 3 3 3 3 3 3 3 3 3 3 3 3 3 3 3 3 3 3 3 3 3 3 3 3 3 3 3 3 3 3 3 3 3 3 3 3 3 3 3 3 3 3 3 3 3 3 3 3 3 3 3 3 3 3 3 3 3 3 3 3 3 3 3 3 3 3 3 3 3 3 3 3 3 3 3 3 3 3 3 3 3 3 3 3 3 3 3 3 3 3 3 3 3 3 3 3 3 3 3 3 3 3 3 3 3 3 3 </vcount>
          <p>1 0 0 0 0 1 10 0 2 10 1 3 2 1 4 1 1 5 10 2 6 3 2 7 2 2 8 10 3 9 4 3 10 3 3 11 10 4 12 5 4 13 4 4 14 10 5 15 6 5 16 5 5 17 10 6 18 7 6 19 6 6 20 10 7 21 8 7 22 7 7 23 10 8 24 9 8 25 8 8 26 10 9 27 0 9 28 9 9 29 11 10 30 0 10 31 1 10 32 11 11 33 1 11 34 2 11 35 11 12 36 2 12 37 3 12 38 11 13 39 3 13 40 4 13 41 11 14 42 4 14 43 5 14 44 11 15 45 5 15 46 6 15 47 11 16 48 6 16 49 7 16 50 11 17 51 7 17 52 8 17 53 11 18 54 8 18 55 9 18 56 9 19 57 0 19 58 11 19 59 32 20 60 12 20 61 13 20 62 33 21 63 23 21 64 22 21 65 32 22 66 13 22 67 14 22 68 33 23 69 24 23 70 23 23 71 32 24 72 14 24 73 15 24 74 33 25 75 25 25 76 24 25 77 32 26 78 15 26 79 16 26 80 33 27 81 26 27 82 25 27 83 32 28 84 16 28 85 17 28 86 33 29 87 27 29 88 26 29 89 32 30 90 17 30 91 18 30 92 33 31 93 28 31 94 27 31 95 32 32 96 18 32 97 19 32 98 33 33 99 29 33 100 28 33 101 32 34 102 19 34 103 20 34 104 33 35 105 30 35 106 29 35 107 32 36 108 20 36 109 21 36 110 33 37 111 31 37 112 30 37 113 21 38 114 12 38 115 32 38 116 33 39 117 22 39 118 31 39 119 54 40 120 34 40 121 35 40 122 55 41 123 45 41 124 44 41 125 54 42 126 35 42 127 36 42 128 55 43 129 46 43 130 45 43 131 54 44 132 36 44 133 37 44 134 55 45 135 47 45 136 46 45 137 54 46 138 37 46 139 38 46 140 55 47 141 48 47 142 47 47 143 54 48 144 38 48 145 39 48 146 55 49 147 49 49 148 48 49 149 54 50 150 39 50 151 40 50 152 55 51 153 50 51 154 49 51 155 54 52 156 40 52 157 41 52 158 55 53 159 51 53 160 50 53 161 54 54 162 41 54 163 42 54 164 55 55 165 52 55 166 51 55 167 54 56 168 42 56 169 43 56 170 55 57 171 53 57 172 52 57 173 43 58 174 34 58 175 54 58 176 55 59 177 44 59 178 53 59 179 76 60 180 56 60 181 57 60 182 77 61 183 67 61 184 66 61 185 76 62 186 57 62 187 58 62 188 77 63 189 68 63 190 67 63 191 76 64 192 58 64 193 59 64 194 77 65 195 69 65 196 68 65 197 76 66 198 59 66 199 60 66 200 77 67 201 70 67 202 69 67 203 76 68 204 60 68 205 61 68 206 77 69 207 71 69 208 70 69 209 76 70 210 61 70 211 62 70 212 77 71 213 72 71 214 71 71 215 76 72 216 62 72 217 63 72 218 77 73 219 73 73 220 72 73 221 76 74 222 63 74 223 64 74 224 77 75 225 74 75 226 73 75 227 76 76 228 64 76 229 65 76 230 77 77 231 75 77 232 74 77 233 65 78 234 56 78 235 76 78 236 77 79 237 66 79 238 75 79 239 66 80 240 56 80 241 65 80 242 66 81 243 65 81 244 75 81 245 64 82 246 74 82 247 75 82 248 64 83 249 75 83 250 65 83 251 63 84 252 73 84 253 74 84 254 63 85 255 74 85 256 64 85 257 62 86 258 72 86 259 73 86 260 62 87 261 73 87 262 63 87 263 61 88 264 71 88 265 72 88 266 61 89 267 72 89 268 62 89 269 60 90 270 70 90 271 71 90 272 60 91 273 71 91 274 61 91 275 59 92 276 69 92 277 70 92 278 59 93 279 70 93 280 60 93 281 58 94 282 68 94 283 69 94 284 58 95 285 69 95 286 59 95 287 57 96 288 67 96 289 68 96 290 57 97 291 68 97 292 58 97 293 56 98 294 66 98 295 67 98 296 56 99 297 67 99 298 57 99 299 44 100 300 34 100 301 43 100 302 44 101 303 43 101 304 53 101 305 42 102 306 52 102 307 53 102 308 42 103 309 53 103 310 43 103 311 41 104 312 51 104 313 52 104 314 41 105 315 52 105 316 42 105 317 40 106 318 50 106 319 51 106 320 40 107 321 51 107 322 41 107 323 39 108 324 49 108 325 50 108 326 39 109 327 50 109 328 40 109 329 38 110 330 48 110 331 49 110 332 38 111 333 49 111 334 39 111 335 37 112 336 47 112 337 48 112 338 37 113 339 48 113 340 38 113 341 36 114 342 46 114 343 47 114 344 36 115 345 47 115 346 37 115 347 35 116 348 45 116 349 46 116 350 35 117 351 46 117 352 36 117 353 34 118 354 44 118 355 45 118 356 34 119 357 45 119 358 35 119 359 22 120 360 12 120 361 21 120 362 22 121 363 21 121 364 31 121 365 20 122 366 30 122 367 31 122 368 20 123 369 31 123 370 21 123 371 19 124 372 29 124 373 30 124 374 19 125 375 30 125 376 20 125 377 18 126 378 28 126 379 29 126 380 18 127 381 29 127 382 19 127 383 17 128 384 27 128 385 28 128 386 17 129 387 28 129 388 18 129 389 16 130 390 26 130 391 27 130 392 16 131 393 27 131 394 17 131 395 15 132 396 25 132 397 26 132 398 15 133 399 26 133 400 16 133 401 14 134 402 24 134 403 25 134 404 14 135 405 25 135 406 15 135 407 13 136 408 23 136 409 24 136 410 13 137 411 24 137 412 14 137 413 12 138 414 22 138 415 23 138 416 12 139 417 23 139 418 13 139 419</p>
        </polylist>
      </mesh>
      <extra><technique profile="MAYA"><double_sided>1</double_sided></technique></extra>
    </geometry>
  </library_geometries>
  <library_visual_scenes>
    <visual_scene id="Scene" name="Scene">
      <node id="Cylinder" type="NODE">
        <translate sid="location">0 0 0</translate>
        <rotate sid="rotationZ">0 0 1 0</rotate>
        <rotate sid="rotationY">0 1 0 0</rotate>
        <rotate sid="rotationX">1 0 0 0</rotate>
        <scale sid="scale">1 1 1</scale>
        <instance_geometry url="#Cylinder_004-mesh">
          <bind_material>
            <technique_common>
              <instance_material symbol="Material_0041" target="#Material_004-material">
                <bind_vertex_input semantic="UVMap" input_semantic="TEXCOORD" input_set="0"/>
              </instance_material>
            </technique_common>
          </bind_material>
        </instance_geometry>
      </node>
    </visual_scene>
  </library_visual_scenes>
  <scene>
    <instance_visual_scene url="#Scene"/>
  </scene>
</COLLADA>